G75*
%MOIN*%
%OFA0B0*%
%FSLAX24Y24*%
%IPPOS*%
%LPD*%
%AMOC8*
5,1,8,0,0,1.08239X$1,22.5*
%
%ADD10R,0.0591X0.1024*%
%ADD11C,0.0087*%
%ADD12R,0.0354X0.0276*%
%ADD13R,0.0215X0.0211*%
%ADD14R,0.0276X0.0354*%
%ADD15R,0.0211X0.0215*%
%ADD16R,0.0217X0.0472*%
%ADD17R,0.0315X0.0118*%
%ADD18R,0.0260X0.0260*%
%ADD19R,0.0394X0.0787*%
%ADD20C,0.0100*%
%ADD21R,0.0190X0.0190*%
%ADD22R,0.0866X0.0236*%
%ADD23C,0.0080*%
%ADD24R,0.0512X0.0512*%
%ADD25R,0.0512X0.0472*%
%ADD26R,0.0472X0.0472*%
%ADD27R,0.0472X0.0512*%
%ADD28R,0.0374X0.0335*%
%ADD29R,0.0394X0.0197*%
%ADD30R,0.0787X0.0157*%
%ADD31R,0.0748X0.0709*%
D10*
X013009Y003850D03*
X015017Y003850D03*
D11*
X013029Y004932D03*
X012832Y004932D03*
X012931Y004748D03*
X013029Y005171D03*
X012832Y005171D03*
D12*
X009728Y003716D03*
X009728Y003204D03*
X006425Y002575D03*
X006425Y002063D03*
X004185Y004401D03*
X004185Y004913D03*
X012311Y011330D03*
X012311Y011842D03*
D13*
X014220Y009749D03*
X014220Y009408D03*
X014960Y009412D03*
X014960Y009753D03*
X014999Y006824D03*
X014999Y006483D03*
X015301Y005702D03*
X015301Y005361D03*
X012427Y005247D03*
X012427Y005588D03*
D14*
X011177Y002972D03*
X011173Y002508D03*
X011165Y002055D03*
X010653Y002055D03*
X010661Y002508D03*
X010665Y002972D03*
X009035Y002972D03*
X008523Y002972D03*
X007645Y002964D03*
X007133Y002964D03*
X007145Y002417D03*
X007657Y002417D03*
X007665Y001870D03*
X007153Y001870D03*
X005448Y002527D03*
X004937Y002527D03*
X003035Y005531D03*
X002523Y005531D03*
X010685Y001594D03*
X011196Y001594D03*
X012480Y010035D03*
X012992Y010035D03*
D15*
X013581Y009732D03*
X013922Y009732D03*
X011800Y009110D03*
X011459Y009110D03*
X014833Y007114D03*
X015174Y007114D03*
X013757Y005909D03*
X013416Y005909D03*
X012601Y004939D03*
X012601Y004619D03*
X012260Y004619D03*
X012260Y004939D03*
D16*
G36*
X005623Y003780D02*
X005622Y003995D01*
X006093Y004000D01*
X006094Y003785D01*
X005623Y003780D01*
G37*
G36*
X005630Y003032D02*
X005629Y003247D01*
X006100Y003252D01*
X006101Y003037D01*
X005630Y003032D01*
G37*
G36*
X004606Y003023D02*
X004605Y003238D01*
X005076Y003243D01*
X005077Y003028D01*
X004606Y003023D01*
G37*
G36*
X004603Y003397D02*
X004602Y003612D01*
X005073Y003617D01*
X005074Y003402D01*
X004603Y003397D01*
G37*
G36*
X004600Y003771D02*
X004599Y003986D01*
X005070Y003991D01*
X005071Y003776D01*
X004600Y003771D01*
G37*
D17*
X008377Y002224D03*
X008377Y002027D03*
X008377Y001830D03*
X008377Y001634D03*
X009480Y001634D03*
X009480Y001830D03*
X009480Y002027D03*
X009480Y002224D03*
D18*
X008929Y001929D03*
D19*
X008141Y006330D03*
X007551Y006330D03*
X006960Y006330D03*
X006370Y006330D03*
X005779Y006330D03*
X005188Y006330D03*
X004598Y006330D03*
X004007Y006330D03*
X003417Y006330D03*
X002826Y006330D03*
X002826Y012236D03*
X003417Y012236D03*
X004007Y012236D03*
X004598Y012236D03*
X005188Y012236D03*
X005779Y012236D03*
X006370Y012236D03*
X006960Y012236D03*
X007551Y012236D03*
X008141Y012236D03*
D20*
X012843Y011888D02*
X013143Y011888D01*
X013143Y011689D02*
X012843Y011689D01*
X012843Y011491D02*
X013143Y011491D01*
X013143Y011280D02*
X012843Y011280D01*
X012843Y011082D02*
X013143Y011082D01*
X013143Y010883D02*
X012843Y010883D01*
X013308Y010708D02*
X013308Y010408D01*
X013507Y010408D02*
X013507Y010708D01*
X013705Y010708D02*
X013705Y010408D01*
X013916Y010408D02*
X013916Y010708D01*
X014114Y010708D02*
X014114Y010408D01*
X014313Y010408D02*
X014313Y010708D01*
X014478Y010883D02*
X014778Y010883D01*
X014778Y011082D02*
X014478Y011082D01*
X014478Y011280D02*
X014778Y011280D01*
X014778Y011491D02*
X014478Y011491D01*
X014478Y011689D02*
X014778Y011689D01*
X014778Y011888D02*
X014478Y011888D01*
X014313Y012063D02*
X014313Y012363D01*
X014114Y012363D02*
X014114Y012063D01*
X013916Y012063D02*
X013916Y012363D01*
X013705Y012363D02*
X013705Y012063D01*
X013507Y012063D02*
X013507Y012363D01*
X013308Y012363D02*
X013308Y012063D01*
D21*
X013572Y011618D03*
X013577Y011143D03*
X014057Y011143D03*
X014072Y011618D03*
D22*
X009043Y005218D03*
X009043Y004718D03*
X009043Y004218D03*
X009043Y003718D03*
X006996Y003718D03*
X006996Y004218D03*
X006996Y004718D03*
X006996Y005218D03*
D23*
X011487Y006619D02*
X011721Y006619D01*
X011721Y006777D02*
X011487Y006777D01*
X011487Y006934D02*
X011721Y006934D01*
X011721Y007092D02*
X011487Y007092D01*
X011487Y007249D02*
X011721Y007249D01*
X011721Y007407D02*
X011487Y007407D01*
X011487Y007564D02*
X011721Y007564D01*
X011721Y007722D02*
X011487Y007722D01*
X011487Y007879D02*
X011721Y007879D01*
X011721Y008037D02*
X011487Y008037D01*
X011487Y008194D02*
X011721Y008194D01*
X011721Y008352D02*
X011487Y008352D01*
X011919Y008550D02*
X011919Y008784D01*
X012076Y008784D02*
X012076Y008550D01*
X012234Y008550D02*
X012234Y008784D01*
X012391Y008784D02*
X012391Y008550D01*
X012549Y008550D02*
X012549Y008784D01*
X012706Y008784D02*
X012706Y008550D01*
X012864Y008550D02*
X012864Y008784D01*
X013021Y008784D02*
X013021Y008550D01*
X013178Y008550D02*
X013178Y008784D01*
X013336Y008784D02*
X013336Y008550D01*
X013493Y008550D02*
X013493Y008784D01*
X013651Y008784D02*
X013651Y008550D01*
X013849Y008352D02*
X014083Y008352D01*
X014083Y008194D02*
X013849Y008194D01*
X013849Y008037D02*
X014083Y008037D01*
X014083Y007879D02*
X013849Y007879D01*
X013849Y007722D02*
X014083Y007722D01*
X014083Y007564D02*
X013849Y007564D01*
X013849Y007407D02*
X014083Y007407D01*
X014083Y007249D02*
X013849Y007249D01*
X013849Y007092D02*
X014083Y007092D01*
X014083Y006934D02*
X013849Y006934D01*
X013849Y006777D02*
X014083Y006777D01*
X014083Y006619D02*
X013849Y006619D01*
X013651Y006421D02*
X013651Y006187D01*
X013493Y006187D02*
X013493Y006421D01*
X013336Y006421D02*
X013336Y006187D01*
X013178Y006187D02*
X013178Y006421D01*
X013021Y006421D02*
X013021Y006187D01*
X012864Y006187D02*
X012864Y006421D01*
X012706Y006421D02*
X012706Y006187D01*
X012549Y006187D02*
X012549Y006421D01*
X012391Y006421D02*
X012391Y006187D01*
X012234Y006187D02*
X012234Y006421D01*
X012076Y006421D02*
X012076Y006187D01*
X011919Y006187D02*
X011919Y006421D01*
D24*
X012135Y006836D03*
X013434Y006836D03*
X013434Y008135D03*
X012135Y008135D03*
D25*
X012135Y007486D03*
X013434Y007486D03*
D26*
X012785Y007486D03*
D27*
X012785Y008135D03*
X012785Y006836D03*
D28*
X014344Y006132D03*
X014344Y005679D03*
X014915Y005679D03*
X014915Y006132D03*
D29*
X014590Y009323D03*
X014590Y009756D03*
D30*
X003685Y003771D03*
X003685Y003515D03*
X003685Y003260D03*
X003685Y003004D03*
X003685Y002748D03*
D31*
X002523Y001685D03*
X002523Y004834D03*
M02*
