G75*
%MOIN*%
%OFA0B0*%
%FSLAX24Y24*%
%IPPOS*%
%LPD*%
%AMOC8*
5,1,8,0,0,1.08239X$1,22.5*
%
%ADD10R,0.0276X0.0354*%
%ADD11R,0.0354X0.0276*%
%ADD12R,0.0180X0.0180*%
%ADD13R,0.0472X0.0512*%
%ADD14C,0.0310*%
%ADD15R,0.0531X0.0236*%
%ADD16R,0.0630X0.0472*%
%ADD17C,0.0740*%
%ADD18R,0.0098X0.0551*%
%ADD19R,0.0630X0.0866*%
%ADD20R,0.0472X0.0472*%
%ADD21R,0.0215X0.0211*%
%ADD22R,0.0211X0.0215*%
%ADD23C,0.0270*%
%ADD24C,0.0060*%
%ADD25C,0.0300*%
%ADD26C,0.0280*%
%ADD27C,0.0290*%
%ADD28C,0.0120*%
%ADD29C,0.0160*%
%ADD30C,0.0100*%
D10*
X007972Y010141D03*
X008484Y010141D03*
X014141Y011811D03*
X014653Y011811D03*
X014421Y010110D03*
X014933Y010110D03*
D11*
X015830Y011224D03*
X015830Y011736D03*
X015236Y011515D03*
X015236Y012027D03*
X011094Y010464D03*
X011094Y009952D03*
X007795Y009220D03*
X007795Y008708D03*
X002913Y008519D03*
X002913Y008008D03*
D12*
X003164Y010952D03*
X003504Y010952D03*
X003504Y011292D03*
X003164Y011292D03*
D13*
X008603Y008724D03*
X009403Y008724D03*
X009296Y009720D03*
X010096Y009720D03*
D14*
X014295Y002364D03*
X014795Y002364D03*
X015295Y002364D03*
X015295Y001864D03*
X014795Y001864D03*
X014295Y001864D03*
D15*
X003578Y002051D03*
X003578Y002445D03*
D16*
X002698Y002956D03*
X002698Y001539D03*
D17*
X017016Y002027D03*
X017116Y003027D03*
X017016Y004027D03*
X017116Y005027D03*
X017016Y006027D03*
X017116Y007027D03*
X017016Y008027D03*
X017116Y009027D03*
X017016Y010027D03*
X017116Y011027D03*
X017016Y012027D03*
D18*
X010720Y010712D03*
X010523Y010712D03*
X010326Y010712D03*
X010129Y010712D03*
X009933Y010712D03*
X009736Y010712D03*
X009539Y010712D03*
X009342Y010712D03*
X009145Y010712D03*
X008948Y010712D03*
D19*
X007905Y011952D03*
X011763Y011952D03*
D20*
X003811Y007193D03*
X002984Y007193D03*
D21*
X003244Y010097D03*
X003244Y010438D03*
X003649Y010446D03*
X003649Y010105D03*
D22*
X004207Y011618D03*
X004548Y011618D03*
X015986Y002850D03*
X016327Y002850D03*
D23*
X016019Y005366D03*
X014330Y006508D03*
X013499Y006886D03*
X013476Y007283D03*
X013106Y007287D03*
X013074Y006870D03*
X012641Y006858D03*
X012177Y006858D03*
X012161Y007323D03*
X012173Y007724D03*
X012625Y007716D03*
X012649Y007307D03*
X013090Y007708D03*
X013464Y007720D03*
X013444Y008126D03*
X013062Y008122D03*
X012629Y008122D03*
X012149Y008130D03*
X013051Y009075D03*
X013917Y009201D03*
X015086Y009043D03*
X016397Y008732D03*
X015464Y010149D03*
X015728Y010401D03*
X015228Y011019D03*
X014803Y012417D03*
X012775Y012567D03*
X009696Y011224D03*
X009385Y011421D03*
X008988Y011425D03*
X008669Y011189D03*
X008248Y010598D03*
X008496Y009551D03*
X006846Y008559D03*
X006066Y007752D03*
X005177Y007078D03*
X005149Y005704D03*
X008251Y007291D03*
X009476Y006606D03*
X010543Y005571D03*
X011885Y005563D03*
X012062Y005909D03*
X012055Y005232D03*
X010704Y004327D03*
X010858Y004012D03*
X011082Y003724D03*
X011444Y003598D03*
X011814Y003559D03*
X013035Y002669D03*
X012358Y002102D03*
X011724Y002047D03*
X010157Y002807D03*
X009677Y002704D03*
X010011Y002264D03*
X009901Y001858D03*
X009980Y001523D03*
X009039Y002582D03*
X005842Y002047D03*
X004303Y002389D03*
X003944Y009421D03*
X003551Y009429D03*
X004078Y009921D03*
X006988Y011559D03*
X010334Y010201D03*
D24*
X002085Y012816D02*
X002101Y001329D01*
X002293Y001329D01*
X002293Y001813D01*
X002346Y001865D01*
X003051Y001865D01*
X003103Y001813D01*
X003103Y001329D01*
X009856Y001329D01*
X009755Y001430D01*
X009755Y001617D01*
X009790Y001651D01*
X009676Y001765D01*
X009676Y001951D01*
X009808Y002083D01*
X009874Y002083D01*
X009786Y002170D01*
X009786Y002357D01*
X009918Y002489D01*
X010067Y002489D01*
X010160Y002582D01*
X010064Y002582D01*
X009932Y002714D01*
X009932Y002900D01*
X010064Y003032D01*
X010212Y003032D01*
X010505Y003325D01*
X010505Y004203D01*
X010508Y004205D01*
X010479Y004233D01*
X010479Y004420D01*
X010611Y004552D01*
X010797Y004552D01*
X010929Y004420D01*
X010929Y004237D01*
X010951Y004237D01*
X011083Y004105D01*
X011083Y003949D01*
X011175Y003949D01*
X011307Y003817D01*
X011307Y003779D01*
X011351Y003823D01*
X011538Y003823D01*
X011649Y003712D01*
X011721Y003784D01*
X011908Y003784D01*
X012039Y003652D01*
X012039Y003528D01*
X012489Y003156D01*
X012491Y003154D01*
X012452Y004634D01*
X016233Y004641D01*
X015899Y004975D01*
X015899Y005168D01*
X015794Y005273D01*
X015794Y005459D01*
X015926Y005591D01*
X016112Y005591D01*
X016244Y005459D01*
X016244Y005273D01*
X016139Y005168D01*
X016139Y005074D01*
X016572Y004642D01*
X016851Y004642D01*
X016726Y004767D01*
X016656Y004936D01*
X016656Y005119D01*
X016726Y005288D01*
X016856Y005417D01*
X017025Y005487D01*
X017208Y005487D01*
X017377Y005417D01*
X017467Y005328D01*
X017467Y005810D01*
X017444Y005765D01*
X017398Y005702D01*
X017342Y005646D01*
X017278Y005600D01*
X017208Y005564D01*
X017134Y005540D01*
X017056Y005527D01*
X017046Y005527D01*
X017046Y005997D01*
X016986Y005997D01*
X016516Y005997D01*
X016516Y005988D01*
X016529Y005910D01*
X016553Y005835D01*
X016589Y005765D01*
X016635Y005702D01*
X016691Y005646D01*
X016754Y005600D01*
X016824Y005564D01*
X016899Y005540D01*
X016977Y005527D01*
X016986Y005527D01*
X016986Y005997D01*
X016986Y006057D01*
X016516Y006057D01*
X016516Y006067D01*
X016529Y006144D01*
X016553Y006219D01*
X016589Y006289D01*
X016635Y006353D01*
X016691Y006409D01*
X016754Y006455D01*
X016824Y006491D01*
X016899Y006515D01*
X016977Y006527D01*
X016986Y006527D01*
X016986Y006057D01*
X017046Y006057D01*
X017046Y006527D01*
X017056Y006527D01*
X017134Y006515D01*
X017208Y006491D01*
X017278Y006455D01*
X017342Y006409D01*
X017398Y006353D01*
X017444Y006289D01*
X017467Y006245D01*
X017467Y006727D01*
X017377Y006637D01*
X017208Y006567D01*
X017025Y006567D01*
X016856Y006637D01*
X016726Y006767D01*
X016656Y006936D01*
X016656Y007119D01*
X016726Y007288D01*
X016856Y007417D01*
X017025Y007487D01*
X017208Y007487D01*
X017377Y007417D01*
X017467Y007327D01*
X017467Y007914D01*
X017406Y007767D01*
X017277Y007637D01*
X017108Y007567D01*
X016925Y007567D01*
X016756Y007637D01*
X016626Y007767D01*
X016556Y007936D01*
X016556Y008119D01*
X016626Y008288D01*
X016756Y008417D01*
X016925Y008487D01*
X017108Y008487D01*
X017277Y008417D01*
X017406Y008288D01*
X017467Y008140D01*
X017468Y008728D01*
X017377Y008637D01*
X017208Y008567D01*
X017025Y008567D01*
X016884Y008626D01*
X016037Y007778D01*
X016037Y006517D01*
X015967Y006447D01*
X015309Y005789D01*
X012261Y005789D01*
X012156Y005684D01*
X012082Y005684D01*
X012110Y005656D01*
X012110Y005470D01*
X011979Y005338D01*
X011792Y005338D01*
X011686Y005444D01*
X010740Y005449D01*
X010636Y005346D01*
X010450Y005346D01*
X010433Y005362D01*
X010433Y005087D01*
X013585Y005087D01*
X013650Y005152D01*
X013845Y005152D01*
X013983Y005014D01*
X013983Y004820D01*
X013845Y004682D01*
X013650Y004682D01*
X013585Y004747D01*
X009977Y004747D01*
X009939Y004710D01*
X009745Y004710D01*
X009607Y004847D01*
X009607Y004939D01*
X007264Y007271D01*
X005299Y007274D01*
X005402Y007172D01*
X005402Y006985D01*
X005270Y006853D01*
X005083Y006853D01*
X004952Y006985D01*
X004952Y007073D01*
X004137Y007073D01*
X004137Y006919D01*
X004084Y006866D01*
X003537Y006866D01*
X003484Y006919D01*
X003484Y007466D01*
X003537Y007519D01*
X004084Y007519D01*
X004137Y007466D01*
X004137Y007313D01*
X004411Y007313D01*
X003457Y008267D01*
X003357Y008366D01*
X003357Y008725D01*
X002854Y009227D01*
X002755Y009327D01*
X002755Y010783D01*
X002854Y010882D01*
X002854Y010882D01*
X002984Y011012D01*
X002984Y011079D01*
X003027Y011122D01*
X002984Y011165D01*
X002984Y011419D01*
X003037Y011472D01*
X003174Y011472D01*
X003441Y011738D01*
X004011Y011738D01*
X002087Y011738D01*
X002087Y011796D02*
X004045Y011796D01*
X004064Y011815D02*
X004011Y011763D01*
X004011Y011738D01*
X004064Y011815D02*
X004350Y011815D01*
X004377Y011788D01*
X004405Y011815D01*
X004691Y011815D01*
X004743Y011763D01*
X004743Y011738D01*
X004927Y011738D01*
X004743Y011738D01*
X004710Y011796D02*
X007500Y011796D01*
X007500Y011738D02*
X004975Y011738D01*
X004976Y011738D02*
X004930Y011741D01*
X004927Y011738D01*
X004976Y011738D02*
X005022Y011738D01*
X005025Y011735D01*
X005029Y011734D01*
X005060Y011700D01*
X005092Y011668D01*
X005092Y011663D01*
X006154Y010452D01*
X006186Y010420D01*
X006186Y010415D01*
X006189Y010412D01*
X006186Y010366D01*
X006186Y007950D01*
X006291Y007845D01*
X006291Y007659D01*
X006245Y007612D01*
X007334Y007611D01*
X007404Y007611D01*
X007404Y007611D01*
X007405Y007611D01*
X007454Y007561D01*
X009847Y005180D01*
X009939Y005180D01*
X010032Y005087D01*
X010093Y005087D01*
X010093Y008414D01*
X009953Y008554D01*
X009730Y008554D01*
X009730Y008431D01*
X009677Y008378D01*
X009130Y008378D01*
X009077Y008431D01*
X009077Y009017D01*
X009130Y009070D01*
X009677Y009070D01*
X009730Y009017D01*
X009730Y008894D01*
X010044Y008894D01*
X010024Y008914D01*
X010024Y009109D01*
X010162Y009247D01*
X010357Y009247D01*
X010494Y009109D01*
X010494Y008995D01*
X010806Y009306D01*
X010806Y009377D01*
X010857Y009428D01*
X010944Y009515D01*
X010944Y009725D01*
X010880Y009725D01*
X010827Y009777D01*
X010827Y010102D01*
X010798Y010072D01*
X010423Y009697D01*
X010423Y009427D01*
X010370Y009374D01*
X010019Y009374D01*
X009874Y009175D01*
X009874Y009162D01*
X009841Y009129D01*
X009814Y009091D01*
X009801Y009089D01*
X009792Y009080D01*
X009745Y009080D01*
X009699Y009073D01*
X009689Y009080D01*
X008062Y009080D01*
X008062Y009045D01*
X008009Y008992D01*
X007580Y008992D01*
X007528Y009045D01*
X007528Y009395D01*
X007580Y009448D01*
X008009Y009448D01*
X008062Y009395D01*
X008062Y009360D01*
X008368Y009360D01*
X008271Y009458D01*
X008271Y009644D01*
X008326Y009699D01*
X008326Y009874D01*
X008309Y009874D01*
X008256Y009927D01*
X008256Y010356D01*
X008309Y010409D01*
X008628Y010409D01*
X008647Y010427D01*
X008654Y010427D01*
X008660Y010431D01*
X008703Y010427D01*
X008809Y010427D01*
X008809Y010879D01*
X008724Y010964D01*
X008576Y010964D01*
X008444Y011096D01*
X008444Y011266D01*
X007364Y010186D01*
X007364Y009014D01*
X007528Y008851D01*
X007528Y008883D01*
X007580Y008936D01*
X008009Y008936D01*
X008062Y008883D01*
X008062Y008874D01*
X008277Y008874D01*
X008277Y009017D01*
X008330Y009070D01*
X008877Y009070D01*
X008930Y009017D01*
X008930Y008431D01*
X008877Y008378D01*
X008330Y008378D01*
X008277Y008431D01*
X008277Y008574D01*
X008062Y008574D01*
X008062Y008533D01*
X008009Y008481D01*
X007580Y008481D01*
X007528Y008533D01*
X007528Y008561D01*
X007422Y008561D01*
X007340Y008643D01*
X007084Y008898D01*
X007084Y010302D01*
X007166Y010384D01*
X008212Y011429D01*
X007553Y011429D01*
X007500Y011482D01*
X007500Y012423D01*
X007553Y012476D01*
X008257Y012476D01*
X008310Y012423D01*
X008310Y011528D01*
X008603Y011821D01*
X009920Y011821D01*
X010002Y011739D01*
X010002Y011727D01*
X010065Y011664D01*
X010065Y011454D01*
X010327Y011717D01*
X011168Y011717D01*
X011358Y011526D01*
X011358Y012423D01*
X011411Y012476D01*
X012116Y012476D01*
X012168Y012423D01*
X012168Y011482D01*
X012116Y011429D01*
X011455Y011429D01*
X011614Y011271D01*
X011614Y009969D01*
X011527Y009882D01*
X011440Y009795D01*
X011361Y009795D01*
X011361Y009777D01*
X011308Y009725D01*
X011244Y009725D01*
X011244Y009528D01*
X011665Y009528D01*
X011715Y009578D01*
X011715Y010680D01*
X011725Y010690D01*
X011725Y010782D01*
X011863Y010920D01*
X012057Y010920D01*
X012122Y010855D01*
X014083Y010855D01*
X014483Y011255D01*
X014483Y011544D01*
X014478Y011544D01*
X014425Y011596D01*
X014425Y012025D01*
X014478Y012078D01*
X014828Y012078D01*
X014881Y012025D01*
X014881Y011596D01*
X014828Y011544D01*
X014823Y011544D01*
X014823Y011114D01*
X014563Y010855D01*
X015074Y010855D01*
X015003Y010926D01*
X015003Y011113D01*
X015135Y011244D01*
X015321Y011244D01*
X015380Y011185D01*
X015405Y011185D01*
X015563Y011343D01*
X015563Y011399D01*
X015616Y011452D01*
X016045Y011452D01*
X016097Y011399D01*
X016097Y011049D01*
X016045Y010996D01*
X016016Y010996D01*
X016016Y010843D01*
X015916Y010743D01*
X015800Y010626D01*
X016460Y010626D01*
X016458Y010624D02*
X016387Y010553D01*
X016387Y009254D01*
X015493Y008360D01*
X015423Y008360D01*
X014808Y008975D01*
X014738Y009045D01*
X014079Y009045D01*
X014142Y009107D01*
X014142Y009262D01*
X015072Y009266D01*
X015120Y009264D01*
X015122Y009266D01*
X015124Y009266D01*
X015158Y009299D01*
X015775Y009876D01*
X015778Y009876D01*
X015811Y009909D01*
X015846Y009942D01*
X015846Y009944D01*
X015848Y009946D01*
X015848Y009994D01*
X015849Y010041D01*
X016387Y010041D01*
X016387Y009983D02*
X015848Y009983D01*
X015849Y010041D02*
X015848Y010043D01*
X015848Y010203D01*
X015953Y010308D01*
X015953Y010495D01*
X015821Y010626D01*
X015800Y010626D01*
X015858Y010685D02*
X016519Y010685D01*
X016577Y010743D02*
X015917Y010743D01*
X015975Y010802D02*
X016636Y010802D01*
X016690Y010856D02*
X016458Y010624D01*
X016402Y010568D02*
X015879Y010568D01*
X015938Y010509D02*
X016387Y010509D01*
X016387Y010451D02*
X015953Y010451D01*
X015953Y010392D02*
X016387Y010392D01*
X016387Y010334D02*
X015953Y010334D01*
X015920Y010275D02*
X016387Y010275D01*
X016387Y010217D02*
X015862Y010217D01*
X015848Y010158D02*
X016387Y010158D01*
X016387Y010100D02*
X015848Y010100D01*
X015728Y009996D02*
X015728Y010401D01*
X015503Y010392D02*
X015148Y010392D01*
X015150Y010391D02*
X015121Y010408D01*
X015087Y010417D01*
X014963Y010417D01*
X014963Y010140D01*
X015200Y010140D01*
X015200Y010304D01*
X015192Y010337D01*
X015174Y010367D01*
X015150Y010391D01*
X015192Y010334D02*
X015503Y010334D01*
X015503Y010308D02*
X015608Y010203D01*
X015608Y010048D01*
X015027Y009505D01*
X013984Y009502D01*
X013944Y009507D01*
X013936Y009501D01*
X013926Y009501D01*
X013897Y009472D01*
X013871Y009453D01*
X013860Y009453D01*
X013834Y009426D01*
X013824Y009426D01*
X013692Y009294D01*
X013692Y009107D01*
X013754Y009045D01*
X013276Y009045D01*
X013276Y009168D01*
X013144Y009300D01*
X013034Y009300D01*
X013034Y009483D01*
X012896Y009621D01*
X012701Y009621D01*
X012636Y009556D01*
X012078Y009556D01*
X012055Y009578D01*
X012055Y010450D01*
X012057Y010450D01*
X012122Y010515D01*
X015523Y010515D01*
X015503Y010495D01*
X015503Y010308D01*
X015536Y010275D02*
X015200Y010275D01*
X015200Y010217D02*
X015594Y010217D01*
X015608Y010158D02*
X015200Y010158D01*
X015200Y010080D02*
X014963Y010080D01*
X014963Y010140D01*
X014903Y010140D01*
X014903Y010417D01*
X014778Y010417D01*
X014745Y010408D01*
X014715Y010391D01*
X014691Y010367D01*
X014674Y010337D01*
X014665Y010304D01*
X014665Y010140D01*
X014903Y010140D01*
X014903Y010080D01*
X014963Y010080D01*
X014963Y009803D01*
X015087Y009803D01*
X015121Y009812D01*
X015150Y009829D01*
X015174Y009853D01*
X015192Y009883D01*
X015200Y009916D01*
X015200Y010080D01*
X015200Y010041D02*
X015601Y010041D01*
X015608Y010100D02*
X014963Y010100D01*
X014963Y010158D02*
X014903Y010158D01*
X014903Y010100D02*
X014649Y010100D01*
X014665Y010080D02*
X014665Y009916D01*
X014674Y009883D01*
X014691Y009853D01*
X014715Y009829D01*
X014745Y009812D01*
X014778Y009803D01*
X014903Y009803D01*
X014903Y010080D01*
X014665Y010080D01*
X014665Y010041D02*
X014649Y010041D01*
X014649Y009983D02*
X014665Y009983D01*
X014665Y009924D02*
X014649Y009924D01*
X014649Y009896D02*
X014649Y010324D01*
X014596Y010377D01*
X014246Y010377D01*
X014193Y010324D01*
X014193Y010299D01*
X013983Y010299D01*
X013918Y010364D01*
X013723Y010364D01*
X013586Y010227D01*
X013586Y010032D01*
X013723Y009894D01*
X013918Y009894D01*
X013983Y009959D01*
X014193Y009959D01*
X014193Y009896D01*
X014246Y009843D01*
X014596Y009843D01*
X014649Y009896D01*
X014619Y009866D02*
X014683Y009866D01*
X014761Y009807D02*
X012055Y009807D01*
X012055Y009749D02*
X015288Y009749D01*
X015350Y009807D02*
X015105Y009807D01*
X015182Y009866D02*
X015413Y009866D01*
X015476Y009924D02*
X015200Y009924D01*
X015200Y009983D02*
X015538Y009983D01*
X015728Y009996D02*
X015074Y009386D01*
X013976Y009382D01*
X013913Y009334D01*
X013917Y009201D01*
X014081Y009047D02*
X016180Y009047D01*
X016239Y009105D02*
X014140Y009105D01*
X014142Y009164D02*
X016297Y009164D01*
X016356Y009222D02*
X014142Y009222D01*
X013876Y009456D02*
X013034Y009456D01*
X013034Y009398D02*
X013796Y009398D01*
X013737Y009339D02*
X013034Y009339D01*
X013163Y009281D02*
X013692Y009281D01*
X013692Y009222D02*
X013221Y009222D01*
X013276Y009164D02*
X013692Y009164D01*
X013694Y009105D02*
X013276Y009105D01*
X013276Y009047D02*
X013752Y009047D01*
X013224Y008925D02*
X013051Y009075D01*
X012877Y008930D02*
X010910Y008930D01*
X010852Y008871D02*
X012936Y008871D01*
X012957Y008850D02*
X013128Y008850D01*
X013142Y008837D01*
X013174Y008805D01*
X013179Y008805D01*
X013183Y008802D01*
X013228Y008805D01*
X014639Y008805D01*
X015324Y008120D01*
X015593Y008120D01*
X016627Y009155D01*
X016627Y009712D01*
X016635Y009702D01*
X016691Y009646D01*
X016754Y009600D01*
X016824Y009564D01*
X016899Y009540D01*
X016977Y009527D01*
X016986Y009527D01*
X016986Y009997D01*
X017046Y009997D01*
X017046Y009527D01*
X017056Y009527D01*
X017134Y009540D01*
X017208Y009564D01*
X017278Y009600D01*
X017342Y009646D01*
X017398Y009702D01*
X017444Y009765D01*
X017468Y009812D01*
X017468Y009326D01*
X017377Y009417D01*
X017208Y009487D01*
X017025Y009487D01*
X016856Y009417D01*
X016726Y009288D01*
X016656Y009119D01*
X016656Y008936D01*
X016715Y008795D01*
X015797Y007877D01*
X010433Y007877D01*
X010433Y007935D02*
X015855Y007935D01*
X015797Y007877D02*
X015797Y006616D01*
X015210Y006029D01*
X012261Y006029D01*
X012156Y006134D01*
X011969Y006134D01*
X011837Y006002D01*
X011837Y005816D01*
X011866Y005788D01*
X011792Y005788D01*
X011688Y005684D01*
X010742Y005689D01*
X010636Y005796D01*
X010450Y005796D01*
X010433Y005779D01*
X010433Y008453D01*
X011146Y009166D01*
X011146Y009188D01*
X011806Y009188D01*
X011885Y009267D01*
X011937Y009216D01*
X012636Y009216D01*
X012701Y009151D01*
X012826Y009151D01*
X012826Y008981D01*
X012957Y008850D01*
X012826Y008988D02*
X010969Y008988D01*
X011027Y009047D02*
X012826Y009047D01*
X012826Y009105D02*
X011086Y009105D01*
X011144Y009164D02*
X012688Y009164D01*
X013166Y008813D02*
X010793Y008813D01*
X010735Y008754D02*
X014689Y008754D01*
X014748Y008696D02*
X010676Y008696D01*
X010618Y008637D02*
X014806Y008637D01*
X014865Y008579D02*
X010559Y008579D01*
X010501Y008520D02*
X014923Y008520D01*
X014982Y008462D02*
X010442Y008462D01*
X010433Y008403D02*
X015040Y008403D01*
X015099Y008345D02*
X010433Y008345D01*
X010433Y008286D02*
X015157Y008286D01*
X015216Y008228D02*
X010433Y008228D01*
X010433Y008169D02*
X015274Y008169D01*
X015374Y008240D02*
X014688Y008925D01*
X013224Y008925D01*
X013002Y009515D02*
X015037Y009515D01*
X015100Y009573D02*
X012943Y009573D01*
X012654Y009573D02*
X012060Y009573D01*
X012055Y009632D02*
X015162Y009632D01*
X015225Y009690D02*
X012055Y009690D01*
X012055Y009866D02*
X014223Y009866D01*
X014193Y009924D02*
X013948Y009924D01*
X013693Y009924D02*
X012055Y009924D01*
X012055Y009983D02*
X013635Y009983D01*
X013586Y010041D02*
X012055Y010041D01*
X012055Y010100D02*
X013586Y010100D01*
X013586Y010158D02*
X012055Y010158D01*
X012055Y010217D02*
X013586Y010217D01*
X013634Y010275D02*
X012055Y010275D01*
X012055Y010334D02*
X013693Y010334D01*
X013949Y010334D02*
X014202Y010334D01*
X014401Y010129D02*
X014421Y010110D01*
X014649Y010158D02*
X014665Y010158D01*
X014665Y010217D02*
X014649Y010217D01*
X014649Y010275D02*
X014665Y010275D01*
X014673Y010334D02*
X014639Y010334D01*
X014717Y010392D02*
X012055Y010392D01*
X012059Y010451D02*
X015503Y010451D01*
X015518Y010509D02*
X012117Y010509D01*
X011745Y010802D02*
X011614Y010802D01*
X011614Y010860D02*
X011803Y010860D01*
X011862Y010919D02*
X011614Y010919D01*
X011614Y010977D02*
X014205Y010977D01*
X014147Y010919D02*
X012058Y010919D01*
X012117Y010860D02*
X014088Y010860D01*
X014264Y011036D02*
X011614Y011036D01*
X011614Y011094D02*
X014322Y011094D01*
X014381Y011153D02*
X011614Y011153D01*
X011614Y011211D02*
X014439Y011211D01*
X014483Y011270D02*
X011614Y011270D01*
X011556Y011328D02*
X014483Y011328D01*
X014483Y011387D02*
X011498Y011387D01*
X011307Y011153D02*
X010279Y011153D01*
X010279Y011156D02*
X010272Y011164D01*
X010272Y011237D01*
X010451Y011417D01*
X011044Y011417D01*
X011314Y011146D01*
X011314Y010725D01*
X011288Y010732D01*
X011124Y010732D01*
X011124Y010494D01*
X011064Y010494D01*
X011064Y010732D01*
X010900Y010732D01*
X010880Y010727D01*
X010880Y010751D01*
X010859Y010771D01*
X010859Y011025D01*
X010806Y011078D01*
X010666Y011078D01*
X010652Y011092D01*
X010623Y011109D01*
X010589Y011118D01*
X010523Y011118D01*
X010457Y011118D01*
X010425Y011109D01*
X010393Y011118D01*
X010326Y011118D01*
X010279Y011118D01*
X010279Y011156D01*
X010272Y011211D02*
X011249Y011211D01*
X011190Y011270D02*
X010305Y011270D01*
X010363Y011328D02*
X011132Y011328D01*
X011073Y011387D02*
X010422Y011387D01*
X010326Y011118D02*
X010326Y010712D01*
X010326Y010712D01*
X010326Y010307D01*
X010260Y010307D01*
X010227Y010316D01*
X010197Y010333D01*
X010183Y010347D01*
X010043Y010347D01*
X010031Y010359D01*
X010019Y010347D01*
X009846Y010347D01*
X009834Y010359D01*
X009822Y010347D01*
X009818Y010347D01*
X009765Y010270D01*
X009765Y010257D01*
X009738Y010230D01*
X009716Y010198D01*
X009704Y010196D01*
X009695Y010187D01*
X009656Y010187D01*
X009618Y010180D01*
X009608Y010187D01*
X008739Y010187D01*
X008712Y010165D01*
X008712Y009927D01*
X008666Y009881D01*
X008666Y009699D01*
X008721Y009644D01*
X008721Y009458D01*
X008623Y009360D01*
X008980Y009360D01*
X008980Y009360D01*
X008956Y009384D01*
X008939Y009414D01*
X008930Y009447D01*
X008930Y009690D01*
X009266Y009690D01*
X009266Y009750D01*
X008930Y009750D01*
X008930Y009993D01*
X008939Y010026D01*
X008956Y010056D01*
X008980Y010080D01*
X009010Y010097D01*
X009043Y010106D01*
X009266Y010106D01*
X009266Y009750D01*
X009326Y009750D01*
X009326Y010106D01*
X009550Y010106D01*
X009583Y010097D01*
X009612Y010080D01*
X009637Y010056D01*
X009654Y010026D01*
X009663Y009993D01*
X009663Y009750D01*
X009326Y009750D01*
X009326Y009690D01*
X009663Y009690D01*
X009663Y009447D01*
X009654Y009414D01*
X009637Y009384D01*
X009612Y009360D01*
X009612Y009360D01*
X009663Y009360D01*
X009770Y009509D01*
X009770Y010013D01*
X009823Y010066D01*
X010370Y010066D01*
X010383Y010053D01*
X010600Y010270D01*
X010600Y010309D01*
X010589Y010307D01*
X010523Y010307D01*
X010523Y010712D01*
X010523Y010712D01*
X010523Y010307D01*
X010457Y010307D01*
X010425Y010315D01*
X010393Y010307D01*
X010326Y010307D01*
X010326Y010712D01*
X010326Y010712D01*
X010505Y010712D01*
X010523Y010712D01*
X010523Y010712D01*
X010326Y010712D01*
X010326Y011118D01*
X010326Y011094D02*
X010326Y011094D01*
X010326Y011036D02*
X010326Y011036D01*
X010326Y010977D02*
X010326Y010977D01*
X010326Y010919D02*
X010326Y010919D01*
X010326Y010860D02*
X010326Y010860D01*
X010326Y010802D02*
X010326Y010802D01*
X010326Y010743D02*
X010326Y010743D01*
X010326Y010712D02*
X010326Y010712D01*
X010326Y010685D02*
X010326Y010685D01*
X010326Y010626D02*
X010326Y010626D01*
X010326Y010568D02*
X010326Y010568D01*
X010326Y010509D02*
X010326Y010509D01*
X010326Y010451D02*
X010326Y010451D01*
X010326Y010392D02*
X010326Y010392D01*
X010326Y010334D02*
X010326Y010334D01*
X010326Y010208D02*
X010334Y010201D01*
X010271Y010138D01*
X009346Y010138D01*
X009296Y010088D01*
X009296Y009720D01*
X009307Y009730D01*
X009326Y009749D02*
X009770Y009749D01*
X009770Y009807D02*
X009663Y009807D01*
X009663Y009866D02*
X009770Y009866D01*
X009770Y009924D02*
X009663Y009924D01*
X009663Y009983D02*
X009770Y009983D01*
X009798Y010041D02*
X009645Y010041D01*
X009573Y010100D02*
X010429Y010100D01*
X010488Y010158D02*
X008712Y010158D01*
X008712Y010100D02*
X009020Y010100D01*
X008948Y010041D02*
X008712Y010041D01*
X008712Y009983D02*
X008930Y009983D01*
X008930Y009924D02*
X008709Y009924D01*
X008666Y009866D02*
X008930Y009866D01*
X008930Y009807D02*
X008666Y009807D01*
X008666Y009749D02*
X009266Y009749D01*
X009266Y009807D02*
X009326Y009807D01*
X009326Y009866D02*
X009266Y009866D01*
X009266Y009924D02*
X009326Y009924D01*
X009326Y009983D02*
X009266Y009983D01*
X009266Y010041D02*
X009326Y010041D01*
X009326Y010100D02*
X009266Y010100D01*
X009645Y010307D02*
X009732Y010433D01*
X009732Y010708D01*
X009736Y010712D01*
X009925Y010720D02*
X009933Y010712D01*
X009925Y010720D02*
X009925Y011413D01*
X009785Y011387D02*
X009610Y011387D01*
X009610Y011445D02*
X009785Y011445D01*
X009785Y011504D02*
X009610Y011504D01*
X009610Y011514D02*
X009584Y011541D01*
X009785Y011541D01*
X009785Y011355D01*
X009805Y011335D01*
X009805Y011078D01*
X009682Y011078D01*
X009668Y011092D01*
X009638Y011109D01*
X009605Y011118D01*
X009539Y011118D01*
X009539Y010712D01*
X009539Y011039D01*
X009696Y011224D01*
X009805Y011211D02*
X009494Y011211D01*
X009479Y011196D02*
X009610Y011328D01*
X009610Y011514D01*
X009610Y011328D02*
X009805Y011328D01*
X009805Y011270D02*
X009552Y011270D01*
X009479Y011196D02*
X009462Y011196D01*
X009462Y011115D01*
X009473Y011118D01*
X009539Y011118D01*
X009539Y010712D01*
X009539Y010712D01*
X009539Y010743D02*
X009539Y010743D01*
X009539Y010802D02*
X009539Y010802D01*
X009539Y010860D02*
X009539Y010860D01*
X009539Y010919D02*
X009539Y010919D01*
X009539Y010977D02*
X009539Y010977D01*
X009539Y011036D02*
X009539Y011036D01*
X009539Y011094D02*
X009539Y011094D01*
X009462Y011153D02*
X009805Y011153D01*
X009805Y011094D02*
X009664Y011094D01*
X009342Y011378D02*
X009342Y010712D01*
X009145Y010712D02*
X009141Y010716D01*
X009141Y011271D01*
X008988Y011425D01*
X009342Y011378D02*
X009385Y011421D01*
X009944Y011796D02*
X011358Y011796D01*
X011358Y011738D02*
X010002Y011738D01*
X010049Y011679D02*
X010290Y011679D01*
X010231Y011621D02*
X010065Y011621D01*
X010065Y011562D02*
X010173Y011562D01*
X010114Y011504D02*
X010065Y011504D01*
X010523Y011118D02*
X010523Y010712D01*
X010523Y010712D01*
X010523Y011118D01*
X010523Y011094D02*
X010523Y011094D01*
X010523Y011036D02*
X010523Y011036D01*
X010523Y010977D02*
X010523Y010977D01*
X010523Y010919D02*
X010523Y010919D01*
X010523Y010860D02*
X010523Y010860D01*
X010523Y010802D02*
X010523Y010802D01*
X010523Y010743D02*
X010523Y010743D01*
X010523Y010685D02*
X010523Y010685D01*
X010523Y010626D02*
X010523Y010626D01*
X010523Y010568D02*
X010523Y010568D01*
X010523Y010509D02*
X010523Y010509D01*
X010523Y010451D02*
X010523Y010451D01*
X010523Y010392D02*
X010523Y010392D01*
X010523Y010334D02*
X010523Y010334D01*
X010600Y010275D02*
X009769Y010275D01*
X009729Y010217D02*
X010546Y010217D01*
X010767Y010041D02*
X010827Y010041D01*
X010827Y009983D02*
X010708Y009983D01*
X010650Y009924D02*
X010827Y009924D01*
X010827Y009866D02*
X010591Y009866D01*
X010533Y009807D02*
X010827Y009807D01*
X010855Y009749D02*
X010474Y009749D01*
X010423Y009690D02*
X010944Y009690D01*
X010944Y009632D02*
X010423Y009632D01*
X010423Y009573D02*
X010944Y009573D01*
X010944Y009515D02*
X010423Y009515D01*
X010423Y009456D02*
X010885Y009456D01*
X010827Y009398D02*
X010393Y009398D01*
X010381Y009222D02*
X010722Y009222D01*
X010663Y009164D02*
X010439Y009164D01*
X010494Y009105D02*
X010605Y009105D01*
X010546Y009047D02*
X010494Y009047D01*
X010780Y009281D02*
X009951Y009281D01*
X009993Y009339D02*
X010806Y009339D01*
X011244Y009573D02*
X011711Y009573D01*
X011715Y009632D02*
X011244Y009632D01*
X011244Y009690D02*
X011715Y009690D01*
X011715Y009749D02*
X011333Y009749D01*
X011452Y009807D02*
X011715Y009807D01*
X011715Y009866D02*
X011511Y009866D01*
X011569Y009924D02*
X011715Y009924D01*
X011715Y009983D02*
X011614Y009983D01*
X011614Y010041D02*
X011715Y010041D01*
X011715Y010100D02*
X011614Y010100D01*
X011614Y010158D02*
X011715Y010158D01*
X011715Y010217D02*
X011614Y010217D01*
X011614Y010275D02*
X011715Y010275D01*
X011715Y010334D02*
X011614Y010334D01*
X011614Y010392D02*
X011715Y010392D01*
X011715Y010451D02*
X011614Y010451D01*
X011614Y010509D02*
X011715Y010509D01*
X011715Y010568D02*
X011614Y010568D01*
X011614Y010626D02*
X011715Y010626D01*
X011720Y010685D02*
X011614Y010685D01*
X011614Y010743D02*
X011725Y010743D01*
X011314Y010743D02*
X010880Y010743D01*
X010859Y010802D02*
X011314Y010802D01*
X011314Y010860D02*
X010859Y010860D01*
X010859Y010919D02*
X011314Y010919D01*
X011314Y010977D02*
X010859Y010977D01*
X010849Y011036D02*
X011314Y011036D01*
X011314Y011094D02*
X010648Y011094D01*
X010720Y010712D02*
X010740Y010693D01*
X010720Y010712D02*
X010691Y010683D01*
X011064Y010685D02*
X011124Y010685D01*
X011124Y010626D02*
X011064Y010626D01*
X011064Y010568D02*
X011124Y010568D01*
X011124Y010509D02*
X011064Y010509D01*
X011064Y010434D02*
X011124Y010434D01*
X011124Y010197D01*
X011288Y010197D01*
X011314Y010203D01*
X011314Y010175D01*
X011308Y010180D01*
X010880Y010180D01*
X010880Y010202D01*
X010900Y010197D01*
X011064Y010197D01*
X011064Y010434D01*
X011064Y010392D02*
X011124Y010392D01*
X011124Y010334D02*
X011064Y010334D01*
X011064Y010275D02*
X011124Y010275D01*
X011124Y010217D02*
X011064Y010217D01*
X010827Y010100D02*
X010825Y010100D01*
X010248Y009720D02*
X010096Y009720D01*
X009770Y009690D02*
X009326Y009690D01*
X009266Y009690D02*
X008674Y009690D01*
X008721Y009632D02*
X008930Y009632D01*
X008930Y009573D02*
X008721Y009573D01*
X008721Y009515D02*
X008930Y009515D01*
X008930Y009456D02*
X008719Y009456D01*
X008661Y009398D02*
X008948Y009398D01*
X008900Y009047D02*
X009107Y009047D01*
X009077Y008988D02*
X008930Y008988D01*
X008930Y008930D02*
X009077Y008930D01*
X009077Y008871D02*
X008930Y008871D01*
X008930Y008813D02*
X009077Y008813D01*
X009077Y008754D02*
X008930Y008754D01*
X008930Y008696D02*
X009077Y008696D01*
X009077Y008637D02*
X008930Y008637D01*
X008930Y008579D02*
X009077Y008579D01*
X009077Y008520D02*
X008930Y008520D01*
X008930Y008462D02*
X009077Y008462D01*
X009105Y008403D02*
X008902Y008403D01*
X008305Y008403D02*
X006186Y008403D01*
X006186Y008345D02*
X010093Y008345D01*
X010093Y008403D02*
X009702Y008403D01*
X009730Y008462D02*
X010045Y008462D01*
X009986Y008520D02*
X009730Y008520D01*
X010093Y008286D02*
X006186Y008286D01*
X006186Y008228D02*
X010093Y008228D01*
X010093Y008169D02*
X006186Y008169D01*
X006186Y008111D02*
X010093Y008111D01*
X010093Y008052D02*
X006186Y008052D01*
X006186Y007994D02*
X010093Y007994D01*
X010093Y007935D02*
X006201Y007935D01*
X006259Y007877D02*
X010093Y007877D01*
X010093Y007818D02*
X006291Y007818D01*
X006291Y007760D02*
X010093Y007760D01*
X010093Y007701D02*
X006291Y007701D01*
X006276Y007643D02*
X010093Y007643D01*
X010093Y007584D02*
X007431Y007584D01*
X007490Y007526D02*
X010093Y007526D01*
X010093Y007467D02*
X007548Y007467D01*
X007607Y007409D02*
X010093Y007409D01*
X010093Y007350D02*
X007666Y007350D01*
X007725Y007292D02*
X010093Y007292D01*
X010093Y007233D02*
X007783Y007233D01*
X007842Y007175D02*
X010093Y007175D01*
X010093Y007116D02*
X007901Y007116D01*
X007960Y007058D02*
X010093Y007058D01*
X010093Y006999D02*
X008019Y006999D01*
X008077Y006941D02*
X010093Y006941D01*
X010093Y006882D02*
X008136Y006882D01*
X008195Y006824D02*
X010093Y006824D01*
X010093Y006765D02*
X008254Y006765D01*
X008312Y006707D02*
X010093Y006707D01*
X010093Y006648D02*
X008371Y006648D01*
X008430Y006590D02*
X010093Y006590D01*
X010093Y006531D02*
X008489Y006531D01*
X008548Y006473D02*
X010093Y006473D01*
X010093Y006414D02*
X008606Y006414D01*
X008665Y006356D02*
X010093Y006356D01*
X010093Y006297D02*
X008724Y006297D01*
X008783Y006239D02*
X010093Y006239D01*
X010093Y006180D02*
X008841Y006180D01*
X008900Y006122D02*
X010093Y006122D01*
X010093Y006063D02*
X008959Y006063D01*
X009018Y006005D02*
X010093Y006005D01*
X010093Y005946D02*
X009077Y005946D01*
X009135Y005888D02*
X010093Y005888D01*
X010093Y005829D02*
X009194Y005829D01*
X009253Y005771D02*
X010093Y005771D01*
X010093Y005712D02*
X009312Y005712D01*
X009370Y005654D02*
X010093Y005654D01*
X010093Y005595D02*
X009429Y005595D01*
X009488Y005537D02*
X010093Y005537D01*
X010093Y005478D02*
X009547Y005478D01*
X009606Y005420D02*
X010093Y005420D01*
X010093Y005361D02*
X009664Y005361D01*
X009723Y005303D02*
X010093Y005303D01*
X010093Y005244D02*
X009782Y005244D01*
X009841Y005186D02*
X010093Y005186D01*
X010093Y005127D02*
X009992Y005127D01*
X009594Y004952D02*
X004518Y004952D01*
X004580Y005010D02*
X009535Y005010D01*
X009476Y005069D02*
X004643Y005069D01*
X004705Y005127D02*
X009417Y005127D01*
X009359Y005186D02*
X004767Y005186D01*
X004830Y005244D02*
X009300Y005244D01*
X009241Y005303D02*
X004892Y005303D01*
X004955Y005361D02*
X009182Y005361D01*
X009124Y005420D02*
X005017Y005420D01*
X005079Y005478D02*
X009065Y005478D01*
X009006Y005537D02*
X005300Y005537D01*
X005242Y005479D02*
X005374Y005611D01*
X005374Y005798D01*
X005242Y005929D01*
X005056Y005929D01*
X004924Y005798D01*
X004924Y005662D01*
X004279Y005057D01*
X004277Y005057D01*
X004243Y005023D01*
X004208Y004990D01*
X004208Y004988D01*
X004206Y004986D01*
X004206Y004939D01*
X004205Y004891D01*
X004206Y004889D01*
X004206Y002611D01*
X004078Y002483D01*
X004078Y002296D01*
X004153Y002221D01*
X003921Y002221D01*
X003924Y002222D01*
X003948Y002247D01*
X003965Y002276D01*
X003974Y002309D01*
X003974Y002416D01*
X003607Y002416D01*
X003607Y002474D01*
X003549Y002474D01*
X003549Y002693D01*
X003295Y002693D01*
X003262Y002684D01*
X003233Y002667D01*
X003208Y002643D01*
X003191Y002613D01*
X003182Y002580D01*
X003182Y002474D01*
X003549Y002474D01*
X003549Y002416D01*
X003182Y002416D01*
X003182Y002309D01*
X003191Y002276D01*
X003208Y002247D01*
X003233Y002222D01*
X003236Y002220D01*
X003222Y002206D01*
X003222Y001896D01*
X003275Y001843D01*
X003881Y001843D01*
X003919Y001881D01*
X005690Y001881D01*
X005749Y001822D01*
X005935Y001822D01*
X006067Y001954D01*
X006067Y002140D01*
X005935Y002272D01*
X005749Y002272D01*
X005698Y002221D01*
X004452Y002221D01*
X004528Y002296D01*
X004528Y002483D01*
X004446Y002564D01*
X004446Y004885D01*
X005081Y005479D01*
X005242Y005479D01*
X005358Y005595D02*
X008947Y005595D01*
X008888Y005654D02*
X005374Y005654D01*
X005374Y005712D02*
X008830Y005712D01*
X008771Y005771D02*
X005374Y005771D01*
X005342Y005829D02*
X008712Y005829D01*
X008653Y005888D02*
X005284Y005888D01*
X005149Y005704D02*
X005145Y005704D01*
X004326Y004937D01*
X004326Y002413D01*
X004303Y002389D01*
X004528Y002378D02*
X009807Y002378D01*
X009786Y002319D02*
X004528Y002319D01*
X004492Y002261D02*
X005738Y002261D01*
X005946Y002261D02*
X009786Y002261D01*
X009786Y002202D02*
X006005Y002202D01*
X006063Y002144D02*
X009813Y002144D01*
X009871Y002085D02*
X006067Y002085D01*
X006067Y002027D02*
X009752Y002027D01*
X009693Y001968D02*
X006067Y001968D01*
X006023Y001910D02*
X009676Y001910D01*
X009676Y001851D02*
X005965Y001851D01*
X005719Y001851D02*
X003890Y001851D01*
X003956Y002261D02*
X004113Y002261D01*
X004078Y002319D02*
X003974Y002319D01*
X003974Y002378D02*
X004078Y002378D01*
X004078Y002436D02*
X003607Y002436D01*
X003607Y002474D02*
X003974Y002474D01*
X003974Y002580D01*
X003965Y002613D01*
X003948Y002643D01*
X003924Y002667D01*
X003894Y002684D01*
X003861Y002693D01*
X003607Y002693D01*
X003607Y002474D01*
X003607Y002495D02*
X003549Y002495D01*
X003549Y002553D02*
X003607Y002553D01*
X003607Y002612D02*
X003549Y002612D01*
X003549Y002670D02*
X003607Y002670D01*
X003549Y002436D02*
X002099Y002436D01*
X002099Y002378D02*
X003182Y002378D01*
X003182Y002319D02*
X002099Y002319D01*
X002099Y002261D02*
X003200Y002261D01*
X003222Y002202D02*
X002099Y002202D01*
X002099Y002144D02*
X003222Y002144D01*
X003222Y002085D02*
X002100Y002085D01*
X002100Y002027D02*
X003222Y002027D01*
X003222Y001968D02*
X002100Y001968D01*
X002100Y001910D02*
X003222Y001910D01*
X003267Y001851D02*
X003065Y001851D01*
X003103Y001793D02*
X009676Y001793D01*
X009707Y001734D02*
X003103Y001734D01*
X003103Y001676D02*
X009765Y001676D01*
X009756Y001617D02*
X003103Y001617D01*
X003103Y001559D02*
X009755Y001559D01*
X009755Y001500D02*
X003103Y001500D01*
X003103Y001442D02*
X009755Y001442D01*
X009802Y001383D02*
X003103Y001383D01*
X002293Y001383D02*
X002100Y001383D01*
X002100Y001442D02*
X002293Y001442D01*
X002293Y001500D02*
X002100Y001500D01*
X002100Y001559D02*
X002293Y001559D01*
X002293Y001617D02*
X002100Y001617D01*
X002100Y001676D02*
X002293Y001676D01*
X002293Y001734D02*
X002100Y001734D01*
X002100Y001793D02*
X002293Y001793D01*
X002332Y001851D02*
X002100Y001851D01*
X002099Y002495D02*
X003182Y002495D01*
X003182Y002553D02*
X002099Y002553D01*
X002099Y002612D02*
X003191Y002612D01*
X003239Y002670D02*
X003091Y002670D01*
X003103Y002683D02*
X003103Y003230D01*
X003051Y003283D01*
X002346Y003283D01*
X002293Y003230D01*
X002293Y002683D01*
X002346Y002630D01*
X003051Y002630D01*
X003103Y002683D01*
X003103Y002729D02*
X004206Y002729D01*
X004206Y002787D02*
X003103Y002787D01*
X003103Y002846D02*
X004206Y002846D01*
X004206Y002904D02*
X003103Y002904D01*
X003103Y002963D02*
X004206Y002963D01*
X004206Y003021D02*
X003103Y003021D01*
X003103Y003080D02*
X004206Y003080D01*
X004206Y003138D02*
X003103Y003138D01*
X003103Y003197D02*
X004206Y003197D01*
X004206Y003255D02*
X003078Y003255D01*
X002319Y003255D02*
X002098Y003255D01*
X002098Y003197D02*
X002293Y003197D01*
X002293Y003138D02*
X002098Y003138D01*
X002098Y003080D02*
X002293Y003080D01*
X002293Y003021D02*
X002098Y003021D01*
X002098Y002963D02*
X002293Y002963D01*
X002293Y002904D02*
X002098Y002904D01*
X002099Y002846D02*
X002293Y002846D01*
X002293Y002787D02*
X002099Y002787D01*
X002099Y002729D02*
X002293Y002729D01*
X002306Y002670D02*
X002099Y002670D01*
X002098Y003314D02*
X004206Y003314D01*
X004206Y003372D02*
X002098Y003372D01*
X002098Y003431D02*
X004206Y003431D01*
X004206Y003489D02*
X002098Y003489D01*
X002098Y003548D02*
X004206Y003548D01*
X004206Y003606D02*
X002097Y003606D01*
X002097Y003665D02*
X004206Y003665D01*
X004206Y003723D02*
X002097Y003723D01*
X002097Y003782D02*
X004206Y003782D01*
X004206Y003840D02*
X002097Y003840D01*
X002097Y003899D02*
X004206Y003899D01*
X004206Y003957D02*
X002097Y003957D01*
X002097Y004016D02*
X004206Y004016D01*
X004206Y004074D02*
X002097Y004074D01*
X002097Y004133D02*
X004206Y004133D01*
X004206Y004191D02*
X002097Y004191D01*
X002097Y004250D02*
X004206Y004250D01*
X004206Y004308D02*
X002097Y004308D01*
X002096Y004367D02*
X004206Y004367D01*
X004206Y004425D02*
X002096Y004425D01*
X002096Y004484D02*
X004206Y004484D01*
X004206Y004542D02*
X002096Y004542D01*
X002096Y004601D02*
X004206Y004601D01*
X004206Y004659D02*
X002096Y004659D01*
X002096Y004718D02*
X004206Y004718D01*
X004206Y004776D02*
X002096Y004776D01*
X002096Y004835D02*
X004206Y004835D01*
X004205Y004893D02*
X002096Y004893D01*
X002096Y004952D02*
X004206Y004952D01*
X004229Y005010D02*
X002096Y005010D01*
X002096Y005069D02*
X004292Y005069D01*
X004354Y005127D02*
X002095Y005127D01*
X002095Y005186D02*
X004417Y005186D01*
X004479Y005244D02*
X002095Y005244D01*
X002095Y005303D02*
X004541Y005303D01*
X004604Y005361D02*
X002095Y005361D01*
X002095Y005420D02*
X004666Y005420D01*
X004729Y005478D02*
X002095Y005478D01*
X002095Y005537D02*
X004791Y005537D01*
X004853Y005595D02*
X002095Y005595D01*
X002095Y005654D02*
X004916Y005654D01*
X004924Y005712D02*
X002095Y005712D01*
X002095Y005771D02*
X004924Y005771D01*
X004956Y005829D02*
X002095Y005829D01*
X002094Y005888D02*
X005014Y005888D01*
X005055Y006882D02*
X004100Y006882D01*
X004137Y006941D02*
X004996Y006941D01*
X004952Y006999D02*
X004137Y006999D01*
X004137Y007058D02*
X004952Y007058D01*
X005062Y007193D02*
X005177Y007078D01*
X005062Y007193D02*
X003811Y007193D01*
X003484Y007175D02*
X003310Y007175D01*
X003310Y007233D02*
X003484Y007233D01*
X003484Y007292D02*
X003310Y007292D01*
X003310Y007350D02*
X003484Y007350D01*
X003484Y007409D02*
X003310Y007409D01*
X003310Y007466D02*
X003257Y007519D01*
X003033Y007519D01*
X003033Y007780D01*
X003127Y007780D01*
X003180Y007833D01*
X003180Y008183D01*
X003127Y008235D01*
X002698Y008235D01*
X002646Y008183D01*
X002646Y007833D01*
X002698Y007780D01*
X002793Y007780D01*
X002793Y007519D01*
X002710Y007519D01*
X002658Y007466D01*
X002658Y006919D01*
X002710Y006866D01*
X003257Y006866D01*
X003310Y006919D01*
X003310Y007466D01*
X003309Y007467D02*
X003486Y007467D01*
X003033Y007526D02*
X004198Y007526D01*
X004256Y007467D02*
X004136Y007467D01*
X004137Y007409D02*
X004315Y007409D01*
X004373Y007350D02*
X004137Y007350D01*
X004139Y007584D02*
X003033Y007584D01*
X003033Y007643D02*
X004081Y007643D01*
X004022Y007701D02*
X003033Y007701D01*
X003033Y007760D02*
X003964Y007760D01*
X003905Y007818D02*
X003166Y007818D01*
X003180Y007877D02*
X003847Y007877D01*
X003788Y007935D02*
X003180Y007935D01*
X003180Y007994D02*
X003730Y007994D01*
X003671Y008052D02*
X003180Y008052D01*
X003180Y008111D02*
X003613Y008111D01*
X003554Y008169D02*
X003180Y008169D01*
X003135Y008228D02*
X003496Y008228D01*
X003437Y008286D02*
X003179Y008286D01*
X003170Y008278D02*
X003194Y008302D01*
X003211Y008331D01*
X003220Y008365D01*
X003220Y008489D01*
X002943Y008489D01*
X002943Y008252D01*
X003107Y008252D01*
X003140Y008260D01*
X003170Y008278D01*
X003215Y008345D02*
X003379Y008345D01*
X003357Y008403D02*
X003220Y008403D01*
X003220Y008462D02*
X003357Y008462D01*
X003357Y008520D02*
X002943Y008520D01*
X002943Y008549D02*
X003220Y008549D01*
X003220Y008674D01*
X003211Y008707D01*
X003194Y008737D01*
X003170Y008761D01*
X003140Y008778D01*
X003107Y008787D01*
X002943Y008787D01*
X002943Y008549D01*
X002943Y008489D01*
X002883Y008489D01*
X002883Y008252D01*
X002719Y008252D01*
X002686Y008260D01*
X002656Y008278D01*
X002632Y008302D01*
X002615Y008331D01*
X002606Y008365D01*
X002606Y008489D01*
X002883Y008489D01*
X002883Y008549D01*
X002606Y008549D01*
X002606Y008674D01*
X002615Y008707D01*
X002632Y008737D01*
X002656Y008761D01*
X002686Y008778D01*
X002719Y008787D01*
X002883Y008787D01*
X002883Y008549D01*
X002943Y008549D01*
X002943Y008579D02*
X002883Y008579D01*
X002883Y008637D02*
X002943Y008637D01*
X002943Y008696D02*
X002883Y008696D01*
X002883Y008754D02*
X002943Y008754D01*
X002883Y008520D02*
X002091Y008520D01*
X002091Y008462D02*
X002606Y008462D01*
X002606Y008403D02*
X002091Y008403D01*
X002091Y008345D02*
X002611Y008345D01*
X002647Y008286D02*
X002091Y008286D01*
X002091Y008228D02*
X002691Y008228D01*
X002646Y008169D02*
X002091Y008169D01*
X002092Y008111D02*
X002646Y008111D01*
X002646Y008052D02*
X002092Y008052D01*
X002092Y007994D02*
X002646Y007994D01*
X002646Y007935D02*
X002092Y007935D01*
X002092Y007877D02*
X002646Y007877D01*
X002660Y007818D02*
X002092Y007818D01*
X002092Y007760D02*
X002793Y007760D01*
X002793Y007701D02*
X002092Y007701D01*
X002092Y007643D02*
X002793Y007643D01*
X002793Y007584D02*
X002092Y007584D01*
X002092Y007526D02*
X002793Y007526D01*
X002659Y007467D02*
X002092Y007467D01*
X002092Y007409D02*
X002658Y007409D01*
X002658Y007350D02*
X002093Y007350D01*
X002093Y007292D02*
X002658Y007292D01*
X002658Y007233D02*
X002093Y007233D01*
X002093Y007175D02*
X002658Y007175D01*
X002658Y007116D02*
X002093Y007116D01*
X002093Y007058D02*
X002658Y007058D01*
X002658Y006999D02*
X002093Y006999D01*
X002093Y006941D02*
X002658Y006941D01*
X002694Y006882D02*
X002093Y006882D01*
X002093Y006824D02*
X007713Y006824D01*
X007654Y006882D02*
X005299Y006882D01*
X005357Y006941D02*
X007595Y006941D01*
X007537Y006999D02*
X005402Y006999D01*
X005402Y007058D02*
X007478Y007058D01*
X007419Y007116D02*
X005402Y007116D01*
X005398Y007175D02*
X007360Y007175D01*
X007301Y007233D02*
X005340Y007233D01*
X005027Y007614D02*
X005027Y007615D01*
X004956Y007615D01*
X004886Y007615D01*
X004886Y007615D01*
X004590Y007615D01*
X003697Y008507D01*
X003697Y008865D01*
X003095Y009468D01*
X003095Y009906D01*
X003099Y009901D01*
X003124Y009901D01*
X003124Y009850D01*
X003118Y009809D01*
X003124Y009801D01*
X003124Y009791D01*
X003153Y009762D01*
X003329Y009525D01*
X003326Y009522D01*
X003326Y009336D01*
X003457Y009204D01*
X003644Y009204D01*
X003744Y009304D01*
X003851Y009196D01*
X004038Y009196D01*
X004169Y009328D01*
X004169Y009514D01*
X004038Y009646D01*
X003919Y009646D01*
X003898Y009672D01*
X003898Y009674D01*
X003868Y009710D01*
X003838Y009747D01*
X003835Y009748D01*
X003773Y009820D01*
X003773Y009909D01*
X003794Y009909D01*
X003847Y009962D01*
X003847Y010248D01*
X003819Y010275D01*
X003847Y010303D01*
X003847Y010589D01*
X003809Y010626D01*
X003854Y010663D01*
X003860Y010663D01*
X003892Y010694D01*
X003926Y010723D01*
X003926Y010729D01*
X003931Y010733D01*
X003931Y010778D01*
X003935Y010822D01*
X003931Y010827D01*
X003931Y011035D01*
X003684Y011281D01*
X003684Y011419D01*
X003631Y011472D01*
X003514Y011472D01*
X003540Y011498D01*
X004011Y011498D01*
X004011Y011473D01*
X004064Y011420D01*
X004350Y011420D01*
X004377Y011448D01*
X004405Y011420D01*
X004691Y011420D01*
X004743Y011473D01*
X004743Y011498D01*
X004918Y011498D01*
X005946Y010325D01*
X005946Y007950D01*
X005841Y007845D01*
X005841Y007659D01*
X005887Y007613D01*
X005027Y007614D01*
X004561Y007643D02*
X005857Y007643D01*
X005841Y007701D02*
X004503Y007701D01*
X004444Y007760D02*
X005841Y007760D01*
X005841Y007818D02*
X004386Y007818D01*
X004327Y007877D02*
X005873Y007877D01*
X005932Y007935D02*
X004269Y007935D01*
X004210Y007994D02*
X005946Y007994D01*
X005946Y008052D02*
X004152Y008052D01*
X004093Y008111D02*
X005946Y008111D01*
X005946Y008169D02*
X004035Y008169D01*
X003976Y008228D02*
X005946Y008228D01*
X005946Y008286D02*
X003918Y008286D01*
X003859Y008345D02*
X005946Y008345D01*
X005946Y008403D02*
X003801Y008403D01*
X003742Y008462D02*
X005946Y008462D01*
X005946Y008520D02*
X003697Y008520D01*
X003697Y008579D02*
X005946Y008579D01*
X005946Y008637D02*
X003697Y008637D01*
X003697Y008696D02*
X005946Y008696D01*
X005946Y008754D02*
X005411Y008754D01*
X005302Y008709D02*
X005586Y008827D01*
X005802Y009044D01*
X005920Y009327D01*
X005920Y009633D01*
X005802Y009917D01*
X005586Y010133D01*
X005302Y010251D01*
X004996Y010251D01*
X004713Y010133D01*
X004496Y009917D01*
X004379Y009633D01*
X004379Y009327D01*
X004496Y009044D01*
X004713Y008827D01*
X004996Y008709D01*
X005302Y008709D01*
X005552Y008813D02*
X005946Y008813D01*
X005946Y008871D02*
X005630Y008871D01*
X005689Y008930D02*
X005946Y008930D01*
X005946Y008988D02*
X005747Y008988D01*
X005804Y009047D02*
X005946Y009047D01*
X005946Y009105D02*
X005828Y009105D01*
X005852Y009164D02*
X005946Y009164D01*
X005946Y009222D02*
X005876Y009222D01*
X005901Y009281D02*
X005946Y009281D01*
X005946Y009339D02*
X005920Y009339D01*
X005920Y009398D02*
X005946Y009398D01*
X005946Y009456D02*
X005920Y009456D01*
X005920Y009515D02*
X005946Y009515D01*
X005946Y009573D02*
X005920Y009573D01*
X005920Y009632D02*
X005946Y009632D01*
X005946Y009690D02*
X005896Y009690D01*
X005872Y009749D02*
X005946Y009749D01*
X005946Y009807D02*
X005848Y009807D01*
X005823Y009866D02*
X005946Y009866D01*
X005946Y009924D02*
X005794Y009924D01*
X005736Y009983D02*
X005946Y009983D01*
X005946Y010041D02*
X005677Y010041D01*
X005619Y010100D02*
X005946Y010100D01*
X005946Y010158D02*
X005525Y010158D01*
X005384Y010217D02*
X005946Y010217D01*
X005946Y010275D02*
X003819Y010275D01*
X003847Y010217D02*
X004914Y010217D01*
X004773Y010158D02*
X003847Y010158D01*
X003847Y010100D02*
X004679Y010100D01*
X004621Y010041D02*
X003847Y010041D01*
X003847Y009983D02*
X004562Y009983D01*
X004504Y009924D02*
X003809Y009924D01*
X003773Y009866D02*
X004475Y009866D01*
X004451Y009807D02*
X003784Y009807D01*
X003834Y009749D02*
X004426Y009749D01*
X004402Y009690D02*
X003885Y009690D01*
X003775Y009634D02*
X003653Y009775D01*
X003653Y010101D01*
X003649Y010105D01*
X003847Y010334D02*
X005938Y010334D01*
X005887Y010392D02*
X003847Y010392D01*
X003847Y010451D02*
X005836Y010451D01*
X005784Y010509D02*
X003847Y010509D01*
X003847Y010568D02*
X005733Y010568D01*
X005682Y010626D02*
X003810Y010626D01*
X003882Y010685D02*
X005631Y010685D01*
X005579Y010743D02*
X003931Y010743D01*
X003933Y010802D02*
X005528Y010802D01*
X005477Y010860D02*
X003931Y010860D01*
X003931Y010919D02*
X005425Y010919D01*
X005374Y010977D02*
X003931Y010977D01*
X003930Y011036D02*
X005323Y011036D01*
X005271Y011094D02*
X003871Y011094D01*
X003813Y011153D02*
X005220Y011153D01*
X005169Y011211D02*
X003754Y011211D01*
X003696Y011270D02*
X005117Y011270D01*
X005066Y011328D02*
X003684Y011328D01*
X003684Y011387D02*
X005015Y011387D01*
X004964Y011445D02*
X004716Y011445D01*
X004548Y011618D02*
X004972Y011618D01*
X006066Y010370D01*
X006066Y007752D01*
X006186Y008462D02*
X008277Y008462D01*
X008277Y008520D02*
X008049Y008520D01*
X007795Y008708D02*
X007775Y008689D01*
X007541Y008520D02*
X006186Y008520D01*
X006186Y008579D02*
X007403Y008579D01*
X007345Y008637D02*
X006186Y008637D01*
X006186Y008696D02*
X007286Y008696D01*
X007228Y008754D02*
X006186Y008754D01*
X006186Y008813D02*
X007169Y008813D01*
X007111Y008871D02*
X006186Y008871D01*
X006186Y008930D02*
X007084Y008930D01*
X007084Y008988D02*
X006186Y008988D01*
X006186Y009047D02*
X007084Y009047D01*
X007084Y009105D02*
X006186Y009105D01*
X006186Y009164D02*
X007084Y009164D01*
X007084Y009222D02*
X006186Y009222D01*
X006186Y009281D02*
X007084Y009281D01*
X007084Y009339D02*
X006186Y009339D01*
X006186Y009398D02*
X007084Y009398D01*
X007084Y009456D02*
X006186Y009456D01*
X006186Y009515D02*
X007084Y009515D01*
X007084Y009573D02*
X006186Y009573D01*
X006186Y009632D02*
X007084Y009632D01*
X007084Y009690D02*
X006186Y009690D01*
X006186Y009749D02*
X007084Y009749D01*
X007084Y009807D02*
X006186Y009807D01*
X006186Y009866D02*
X007084Y009866D01*
X007084Y009924D02*
X006186Y009924D01*
X006186Y009983D02*
X007084Y009983D01*
X007084Y010041D02*
X006186Y010041D01*
X006186Y010100D02*
X007084Y010100D01*
X007084Y010158D02*
X006186Y010158D01*
X006186Y010217D02*
X007084Y010217D01*
X007084Y010275D02*
X006186Y010275D01*
X006186Y010334D02*
X007116Y010334D01*
X007174Y010392D02*
X006188Y010392D01*
X006155Y010451D02*
X007233Y010451D01*
X007291Y010509D02*
X006104Y010509D01*
X006052Y010568D02*
X007350Y010568D01*
X007408Y010626D02*
X006001Y010626D01*
X005950Y010685D02*
X007467Y010685D01*
X007525Y010743D02*
X005898Y010743D01*
X005847Y010802D02*
X007584Y010802D01*
X007642Y010860D02*
X005796Y010860D01*
X005745Y010919D02*
X007701Y010919D01*
X007759Y010977D02*
X005693Y010977D01*
X005642Y011036D02*
X007818Y011036D01*
X007876Y011094D02*
X005591Y011094D01*
X005539Y011153D02*
X007935Y011153D01*
X007993Y011211D02*
X005488Y011211D01*
X005437Y011270D02*
X008052Y011270D01*
X008110Y011328D02*
X005385Y011328D01*
X005334Y011387D02*
X008169Y011387D01*
X008331Y011153D02*
X008444Y011153D01*
X008444Y011211D02*
X008389Y011211D01*
X008445Y011094D02*
X008272Y011094D01*
X008214Y011036D02*
X008503Y011036D01*
X008562Y010977D02*
X008155Y010977D01*
X008097Y010919D02*
X008769Y010919D01*
X008809Y010860D02*
X008038Y010860D01*
X007980Y010802D02*
X008809Y010802D01*
X008809Y010743D02*
X007921Y010743D01*
X007863Y010685D02*
X008809Y010685D01*
X008809Y010626D02*
X007804Y010626D01*
X007746Y010568D02*
X008809Y010568D01*
X008809Y010509D02*
X007687Y010509D01*
X007629Y010451D02*
X008809Y010451D01*
X008696Y010307D02*
X009645Y010307D01*
X009809Y010334D02*
X010196Y010334D01*
X009770Y009632D02*
X009663Y009632D01*
X009663Y009573D02*
X009770Y009573D01*
X009770Y009515D02*
X009663Y009515D01*
X009663Y009456D02*
X009732Y009456D01*
X009690Y009398D02*
X009644Y009398D01*
X009909Y009222D02*
X010138Y009222D01*
X010079Y009164D02*
X009874Y009164D01*
X009824Y009105D02*
X010024Y009105D01*
X010024Y009047D02*
X009700Y009047D01*
X009730Y008988D02*
X010024Y008988D01*
X010024Y008930D02*
X009730Y008930D01*
X010433Y008111D02*
X016030Y008111D01*
X015972Y008052D02*
X010433Y008052D01*
X010433Y007994D02*
X015913Y007994D01*
X015917Y007828D02*
X017116Y009027D01*
X016656Y009047D02*
X016519Y009047D01*
X016461Y008988D02*
X016656Y008988D01*
X016659Y008930D02*
X016402Y008930D01*
X016344Y008871D02*
X016683Y008871D01*
X016707Y008813D02*
X016285Y008813D01*
X016227Y008754D02*
X016674Y008754D01*
X016615Y008696D02*
X016168Y008696D01*
X016110Y008637D02*
X016557Y008637D01*
X016498Y008579D02*
X016051Y008579D01*
X015993Y008520D02*
X016440Y008520D01*
X016381Y008462D02*
X015934Y008462D01*
X015876Y008403D02*
X016323Y008403D01*
X016264Y008345D02*
X015817Y008345D01*
X015759Y008286D02*
X016206Y008286D01*
X016147Y008228D02*
X015700Y008228D01*
X015642Y008169D02*
X016089Y008169D01*
X016253Y007994D02*
X016556Y007994D01*
X016556Y008052D02*
X016311Y008052D01*
X016370Y008111D02*
X016556Y008111D01*
X016577Y008169D02*
X016428Y008169D01*
X016487Y008228D02*
X016602Y008228D01*
X016626Y008286D02*
X016545Y008286D01*
X016604Y008345D02*
X016683Y008345D01*
X016662Y008403D02*
X016742Y008403D01*
X016721Y008462D02*
X016864Y008462D01*
X016779Y008520D02*
X017468Y008520D01*
X017468Y008462D02*
X017169Y008462D01*
X017236Y008579D02*
X017468Y008579D01*
X017468Y008637D02*
X017377Y008637D01*
X017436Y008696D02*
X017468Y008696D01*
X017468Y008403D02*
X017291Y008403D01*
X017349Y008345D02*
X017468Y008345D01*
X017468Y008286D02*
X017407Y008286D01*
X017431Y008228D02*
X017468Y008228D01*
X017468Y008169D02*
X017455Y008169D01*
X017452Y007877D02*
X017467Y007877D01*
X017467Y007818D02*
X017428Y007818D01*
X017400Y007760D02*
X017467Y007760D01*
X017467Y007701D02*
X017341Y007701D01*
X017283Y007643D02*
X017467Y007643D01*
X017467Y007584D02*
X017149Y007584D01*
X017256Y007467D02*
X017467Y007467D01*
X017467Y007409D02*
X017385Y007409D01*
X017444Y007350D02*
X017467Y007350D01*
X017467Y007526D02*
X016037Y007526D01*
X016037Y007584D02*
X016884Y007584D01*
X016750Y007643D02*
X016037Y007643D01*
X016037Y007701D02*
X016692Y007701D01*
X016633Y007760D02*
X016037Y007760D01*
X016077Y007818D02*
X016605Y007818D01*
X016581Y007877D02*
X016136Y007877D01*
X016194Y007935D02*
X016557Y007935D01*
X016977Y007467D02*
X016037Y007467D01*
X016037Y007409D02*
X016847Y007409D01*
X016789Y007350D02*
X016037Y007350D01*
X016037Y007292D02*
X016730Y007292D01*
X016704Y007233D02*
X016037Y007233D01*
X016037Y007175D02*
X016680Y007175D01*
X016656Y007116D02*
X016037Y007116D01*
X016037Y007058D02*
X016656Y007058D01*
X016656Y006999D02*
X016037Y006999D01*
X016037Y006941D02*
X016656Y006941D01*
X016679Y006882D02*
X016037Y006882D01*
X016037Y006824D02*
X016703Y006824D01*
X016728Y006765D02*
X016037Y006765D01*
X016037Y006707D02*
X016786Y006707D01*
X016845Y006648D02*
X016037Y006648D01*
X016037Y006590D02*
X016970Y006590D01*
X016986Y006473D02*
X017046Y006473D01*
X017046Y006414D02*
X016986Y006414D01*
X016986Y006356D02*
X017046Y006356D01*
X017046Y006297D02*
X016986Y006297D01*
X016986Y006239D02*
X017046Y006239D01*
X017046Y006180D02*
X016986Y006180D01*
X016986Y006122D02*
X017046Y006122D01*
X017046Y006063D02*
X016986Y006063D01*
X016986Y006005D02*
X015525Y006005D01*
X015583Y006063D02*
X016516Y006063D01*
X016525Y006122D02*
X015642Y006122D01*
X015700Y006180D02*
X016540Y006180D01*
X016563Y006239D02*
X015759Y006239D01*
X015817Y006297D02*
X016595Y006297D01*
X016638Y006356D02*
X015876Y006356D01*
X015934Y006414D02*
X016699Y006414D01*
X016790Y006473D02*
X015993Y006473D01*
X016037Y006531D02*
X017467Y006531D01*
X017467Y006473D02*
X017243Y006473D01*
X017334Y006414D02*
X017467Y006414D01*
X017467Y006356D02*
X017395Y006356D01*
X017438Y006297D02*
X017467Y006297D01*
X017467Y006590D02*
X017262Y006590D01*
X017388Y006648D02*
X017467Y006648D01*
X017467Y006707D02*
X017447Y006707D01*
X017046Y005946D02*
X016986Y005946D01*
X016986Y005888D02*
X017046Y005888D01*
X017046Y005829D02*
X016986Y005829D01*
X016986Y005771D02*
X017046Y005771D01*
X017046Y005712D02*
X016986Y005712D01*
X016986Y005654D02*
X017046Y005654D01*
X017046Y005595D02*
X016986Y005595D01*
X016986Y005537D02*
X017046Y005537D01*
X017116Y005537D02*
X017467Y005537D01*
X017467Y005595D02*
X017270Y005595D01*
X017350Y005654D02*
X017467Y005654D01*
X017467Y005712D02*
X017406Y005712D01*
X017447Y005771D02*
X017467Y005771D01*
X017467Y005478D02*
X017229Y005478D01*
X017371Y005420D02*
X017467Y005420D01*
X017467Y005361D02*
X017433Y005361D01*
X017003Y005478D02*
X016225Y005478D01*
X016244Y005420D02*
X016862Y005420D01*
X016800Y005361D02*
X016244Y005361D01*
X016244Y005303D02*
X016741Y005303D01*
X016708Y005244D02*
X016216Y005244D01*
X016157Y005186D02*
X016684Y005186D01*
X016660Y005127D02*
X016139Y005127D01*
X016145Y005069D02*
X016656Y005069D01*
X016656Y005010D02*
X016203Y005010D01*
X016262Y004952D02*
X016656Y004952D01*
X016674Y004893D02*
X016320Y004893D01*
X016379Y004835D02*
X016698Y004835D01*
X016722Y004776D02*
X016437Y004776D01*
X016496Y004718D02*
X016775Y004718D01*
X016834Y004659D02*
X016554Y004659D01*
X016215Y004659D02*
X004446Y004659D01*
X004446Y004601D02*
X012453Y004601D01*
X012455Y004542D02*
X010807Y004542D01*
X010865Y004484D02*
X012456Y004484D01*
X012458Y004425D02*
X010924Y004425D01*
X010929Y004367D02*
X012459Y004367D01*
X012461Y004308D02*
X010929Y004308D01*
X010929Y004250D02*
X012462Y004250D01*
X012464Y004191D02*
X010996Y004191D01*
X011055Y004133D02*
X012465Y004133D01*
X012467Y004074D02*
X011083Y004074D01*
X011083Y004016D02*
X012469Y004016D01*
X012470Y003957D02*
X011083Y003957D01*
X011226Y003899D02*
X012472Y003899D01*
X012473Y003840D02*
X011284Y003840D01*
X011307Y003782D02*
X011310Y003782D01*
X011444Y003598D02*
X011444Y001893D01*
X011114Y001563D01*
X010019Y001563D01*
X009980Y001523D01*
X010158Y001383D02*
X013297Y001383D01*
X013365Y001329D02*
X010104Y001329D01*
X010205Y001430D01*
X010205Y001443D01*
X011163Y001443D01*
X011234Y001513D01*
X011494Y001773D01*
X011564Y001844D01*
X011564Y003400D01*
X011610Y003445D01*
X011721Y003334D01*
X011898Y003334D01*
X012294Y003005D01*
X012174Y002884D01*
X012174Y002690D01*
X012312Y002552D01*
X012432Y002552D01*
X013023Y001961D01*
X013023Y001725D01*
X013017Y001717D01*
X013023Y001664D01*
X013023Y001611D01*
X013030Y001604D01*
X013031Y001594D01*
X013073Y001561D01*
X013111Y001523D01*
X013121Y001523D01*
X013365Y001329D01*
X013223Y001442D02*
X010205Y001442D01*
X010295Y001748D02*
X010153Y001862D01*
X009937Y001862D01*
X009901Y001858D01*
X010295Y001748D02*
X010846Y001748D01*
X011035Y001889D01*
X011035Y001901D01*
X011082Y003724D01*
X010858Y004012D02*
X010838Y003090D01*
X010011Y002264D01*
X009866Y002436D02*
X004528Y002436D01*
X004515Y002495D02*
X010073Y002495D01*
X010131Y002553D02*
X004457Y002553D01*
X004446Y002612D02*
X010034Y002612D01*
X009975Y002670D02*
X004446Y002670D01*
X004446Y002729D02*
X009932Y002729D01*
X009932Y002787D02*
X004446Y002787D01*
X004446Y002846D02*
X009932Y002846D01*
X009936Y002904D02*
X004446Y002904D01*
X004446Y002963D02*
X009995Y002963D01*
X010053Y003021D02*
X004446Y003021D01*
X004446Y003080D02*
X010260Y003080D01*
X010319Y003138D02*
X004446Y003138D01*
X004446Y003197D02*
X010377Y003197D01*
X010436Y003255D02*
X004446Y003255D01*
X004446Y003314D02*
X010494Y003314D01*
X010505Y003372D02*
X004446Y003372D01*
X004446Y003431D02*
X010505Y003431D01*
X010505Y003489D02*
X004446Y003489D01*
X004446Y003548D02*
X010505Y003548D01*
X010505Y003606D02*
X004446Y003606D01*
X004446Y003665D02*
X010505Y003665D01*
X010505Y003723D02*
X004446Y003723D01*
X004446Y003782D02*
X010505Y003782D01*
X010505Y003840D02*
X004446Y003840D01*
X004446Y003899D02*
X010505Y003899D01*
X010505Y003957D02*
X004446Y003957D01*
X004446Y004016D02*
X010505Y004016D01*
X010505Y004074D02*
X009903Y004074D01*
X009853Y004025D02*
X009990Y004162D01*
X009990Y004357D01*
X009853Y004495D01*
X009658Y004495D01*
X009520Y004357D01*
X009520Y004162D01*
X009658Y004025D01*
X009853Y004025D01*
X009961Y004133D02*
X010505Y004133D01*
X010505Y004191D02*
X009990Y004191D01*
X009990Y004250D02*
X010479Y004250D01*
X010479Y004308D02*
X009990Y004308D01*
X009980Y004367D02*
X010479Y004367D01*
X010485Y004425D02*
X009922Y004425D01*
X009863Y004484D02*
X010543Y004484D01*
X010602Y004542D02*
X004446Y004542D01*
X004446Y004484D02*
X009647Y004484D01*
X009589Y004425D02*
X004446Y004425D01*
X004446Y004367D02*
X009530Y004367D01*
X009520Y004308D02*
X004446Y004308D01*
X004446Y004250D02*
X009520Y004250D01*
X009520Y004191D02*
X004446Y004191D01*
X004446Y004133D02*
X009550Y004133D01*
X009608Y004074D02*
X004446Y004074D01*
X004446Y004718D02*
X009736Y004718D01*
X009678Y004776D02*
X004446Y004776D01*
X004446Y004835D02*
X009619Y004835D01*
X009607Y004893D02*
X004455Y004893D01*
X002094Y005946D02*
X008595Y005946D01*
X008536Y006005D02*
X002094Y006005D01*
X002094Y006063D02*
X008477Y006063D01*
X008418Y006122D02*
X002094Y006122D01*
X002094Y006180D02*
X008359Y006180D01*
X008301Y006239D02*
X002094Y006239D01*
X002094Y006297D02*
X008242Y006297D01*
X008183Y006356D02*
X002094Y006356D01*
X002094Y006414D02*
X008124Y006414D01*
X008066Y006473D02*
X002094Y006473D01*
X002094Y006531D02*
X008007Y006531D01*
X007948Y006590D02*
X002094Y006590D01*
X002093Y006648D02*
X007889Y006648D01*
X007830Y006707D02*
X002093Y006707D01*
X002093Y006765D02*
X007772Y006765D01*
X007528Y008871D02*
X007507Y008871D01*
X007448Y008930D02*
X007574Y008930D01*
X007528Y009047D02*
X007364Y009047D01*
X007364Y009105D02*
X007528Y009105D01*
X007528Y009164D02*
X007364Y009164D01*
X007364Y009222D02*
X007528Y009222D01*
X007528Y009281D02*
X007364Y009281D01*
X007364Y009339D02*
X007528Y009339D01*
X007530Y009398D02*
X007364Y009398D01*
X007364Y009456D02*
X008272Y009456D01*
X008271Y009515D02*
X007364Y009515D01*
X007364Y009573D02*
X008271Y009573D01*
X008271Y009632D02*
X007364Y009632D01*
X007364Y009690D02*
X008317Y009690D01*
X008326Y009749D02*
X007364Y009749D01*
X007364Y009807D02*
X008326Y009807D01*
X008326Y009866D02*
X008195Y009866D01*
X008190Y009860D02*
X008214Y009884D01*
X008231Y009914D01*
X008240Y009947D01*
X008240Y010111D01*
X008002Y010111D01*
X008002Y009834D01*
X008127Y009834D01*
X008160Y009843D01*
X008190Y009860D01*
X008234Y009924D02*
X008259Y009924D01*
X008256Y009983D02*
X008240Y009983D01*
X008240Y010041D02*
X008256Y010041D01*
X008256Y010100D02*
X008240Y010100D01*
X008256Y010158D02*
X008002Y010158D01*
X008002Y010171D02*
X008240Y010171D01*
X008240Y010336D01*
X008231Y010369D01*
X008214Y010398D01*
X008190Y010423D01*
X008160Y010440D01*
X008127Y010449D01*
X008002Y010449D01*
X008002Y010171D01*
X008002Y010111D01*
X007942Y010111D01*
X007942Y009834D01*
X007817Y009834D01*
X007784Y009843D01*
X007754Y009860D01*
X007730Y009884D01*
X007713Y009914D01*
X007704Y009947D01*
X007704Y010111D01*
X007942Y010111D01*
X007942Y010171D01*
X007704Y010171D01*
X007704Y010336D01*
X007713Y010369D01*
X007730Y010398D01*
X007754Y010423D01*
X007784Y010440D01*
X007817Y010449D01*
X007942Y010449D01*
X007942Y010171D01*
X008002Y010171D01*
X007972Y010141D02*
X007972Y010323D01*
X008248Y010598D01*
X008217Y010392D02*
X008292Y010392D01*
X008256Y010334D02*
X008240Y010334D01*
X008240Y010275D02*
X008256Y010275D01*
X008256Y010217D02*
X008240Y010217D01*
X008484Y010141D02*
X008492Y010141D01*
X008696Y010307D01*
X008948Y010712D02*
X008952Y010716D01*
X008952Y010905D01*
X008669Y011189D01*
X008344Y011562D02*
X008310Y011562D01*
X008310Y011621D02*
X008403Y011621D01*
X008461Y011679D02*
X008310Y011679D01*
X008310Y011738D02*
X008520Y011738D01*
X008578Y011796D02*
X008310Y011796D01*
X008310Y011855D02*
X011358Y011855D01*
X011358Y011913D02*
X008310Y011913D01*
X008310Y011972D02*
X011358Y011972D01*
X011358Y012030D02*
X008310Y012030D01*
X008310Y012089D02*
X011358Y012089D01*
X011358Y012147D02*
X008310Y012147D01*
X008310Y012206D02*
X011358Y012206D01*
X011358Y012264D02*
X008310Y012264D01*
X008310Y012323D02*
X011358Y012323D01*
X011358Y012381D02*
X008310Y012381D01*
X008293Y012440D02*
X011375Y012440D01*
X012151Y012440D02*
X012584Y012440D01*
X012550Y012473D02*
X012682Y012342D01*
X012868Y012342D01*
X012919Y012393D01*
X013304Y012393D01*
X013913Y011796D01*
X012168Y011796D01*
X012168Y011738D02*
X013913Y011738D01*
X013913Y011796D02*
X013913Y011596D01*
X013966Y011544D01*
X014316Y011544D01*
X014369Y011596D01*
X014369Y012025D01*
X014316Y012078D01*
X014111Y012078D01*
X013493Y012684D01*
X013444Y012733D01*
X013443Y012733D01*
X013442Y012733D01*
X013373Y012733D01*
X012927Y012733D01*
X012868Y012792D01*
X012682Y012792D01*
X012550Y012660D01*
X012550Y012473D01*
X012550Y012498D02*
X002086Y012498D01*
X002086Y012440D02*
X007517Y012440D01*
X007500Y012381D02*
X002086Y012381D01*
X002086Y012323D02*
X007500Y012323D01*
X007500Y012264D02*
X002086Y012264D01*
X002086Y012206D02*
X007500Y012206D01*
X007500Y012147D02*
X002086Y012147D01*
X002086Y012089D02*
X007500Y012089D01*
X007500Y012030D02*
X002086Y012030D01*
X002086Y011972D02*
X007500Y011972D01*
X007500Y011913D02*
X002086Y011913D01*
X002087Y011855D02*
X007500Y011855D01*
X007500Y011679D02*
X005080Y011679D01*
X005129Y011621D02*
X007500Y011621D01*
X007500Y011562D02*
X005180Y011562D01*
X005231Y011504D02*
X007500Y011504D01*
X007537Y011445D02*
X005283Y011445D01*
X004380Y011445D02*
X004375Y011445D01*
X004207Y011618D02*
X003490Y011618D01*
X003164Y011292D01*
X002984Y011270D02*
X002087Y011270D01*
X002087Y011328D02*
X002984Y011328D01*
X002984Y011387D02*
X002087Y011387D01*
X002087Y011445D02*
X003010Y011445D01*
X003207Y011504D02*
X002087Y011504D01*
X002087Y011562D02*
X003265Y011562D01*
X003324Y011621D02*
X002087Y011621D01*
X002087Y011679D02*
X003382Y011679D01*
X003658Y011445D02*
X004039Y011445D01*
X004369Y011796D02*
X004386Y011796D01*
X003811Y010985D02*
X003504Y011292D01*
X003811Y010985D02*
X003811Y010783D01*
X003645Y010645D01*
X003649Y010446D01*
X003244Y010438D02*
X003244Y010681D01*
X003504Y010941D01*
X003504Y010952D01*
X003164Y010952D02*
X003164Y010936D01*
X002984Y011036D02*
X002088Y011036D01*
X002088Y011094D02*
X002999Y011094D01*
X002996Y011153D02*
X002087Y011153D01*
X002087Y011211D02*
X002984Y011211D01*
X002949Y010977D02*
X002088Y010977D01*
X002088Y010919D02*
X002891Y010919D01*
X002832Y010860D02*
X002088Y010860D01*
X002088Y010802D02*
X002774Y010802D01*
X002755Y010743D02*
X002088Y010743D01*
X002088Y010685D02*
X002755Y010685D01*
X002755Y010626D02*
X002088Y010626D01*
X002088Y010568D02*
X002755Y010568D01*
X002755Y010509D02*
X002088Y010509D01*
X002088Y010451D02*
X002755Y010451D01*
X002755Y010392D02*
X002088Y010392D01*
X002089Y010334D02*
X002755Y010334D01*
X002755Y010275D02*
X002089Y010275D01*
X002089Y010217D02*
X002755Y010217D01*
X002755Y010158D02*
X002089Y010158D01*
X002089Y010100D02*
X002755Y010100D01*
X002755Y010041D02*
X002089Y010041D01*
X002089Y009983D02*
X002755Y009983D01*
X002755Y009924D02*
X002089Y009924D01*
X002089Y009866D02*
X002755Y009866D01*
X002755Y009807D02*
X002089Y009807D01*
X002089Y009749D02*
X002755Y009749D01*
X002755Y009690D02*
X002089Y009690D01*
X002089Y009632D02*
X002755Y009632D01*
X002755Y009573D02*
X002090Y009573D01*
X002090Y009515D02*
X002755Y009515D01*
X002755Y009456D02*
X002090Y009456D01*
X002090Y009398D02*
X002755Y009398D01*
X002755Y009339D02*
X002090Y009339D01*
X002090Y009281D02*
X002801Y009281D01*
X002859Y009222D02*
X002090Y009222D01*
X002090Y009164D02*
X002918Y009164D01*
X002976Y009105D02*
X002090Y009105D01*
X002090Y009047D02*
X003035Y009047D01*
X003093Y008988D02*
X002090Y008988D01*
X002090Y008930D02*
X003152Y008930D01*
X003210Y008871D02*
X002090Y008871D01*
X002091Y008813D02*
X003269Y008813D01*
X003327Y008754D02*
X003177Y008754D01*
X003214Y008696D02*
X003357Y008696D01*
X003357Y008637D02*
X003220Y008637D01*
X003220Y008579D02*
X003357Y008579D01*
X003697Y008754D02*
X004887Y008754D01*
X004746Y008813D02*
X003697Y008813D01*
X003691Y008871D02*
X004668Y008871D01*
X004610Y008930D02*
X003633Y008930D01*
X003574Y008988D02*
X004551Y008988D01*
X004494Y009047D02*
X003516Y009047D01*
X003457Y009105D02*
X004470Y009105D01*
X004446Y009164D02*
X003399Y009164D01*
X003439Y009222D02*
X003340Y009222D01*
X003380Y009281D02*
X003282Y009281D01*
X003326Y009339D02*
X003223Y009339D01*
X003165Y009398D02*
X003326Y009398D01*
X003326Y009456D02*
X003106Y009456D01*
X003095Y009515D02*
X003326Y009515D01*
X003293Y009573D02*
X003095Y009573D01*
X003095Y009632D02*
X003250Y009632D01*
X003206Y009690D02*
X003095Y009690D01*
X003095Y009749D02*
X003163Y009749D01*
X003119Y009807D02*
X003095Y009807D01*
X003095Y009866D02*
X003124Y009866D01*
X003244Y009841D02*
X003244Y010097D01*
X003244Y009841D02*
X003551Y009429D01*
X003721Y009281D02*
X003766Y009281D01*
X003825Y009222D02*
X003662Y009222D01*
X003944Y009421D02*
X003775Y009634D01*
X004052Y009632D02*
X004379Y009632D01*
X004379Y009573D02*
X004110Y009573D01*
X004169Y009515D02*
X004379Y009515D01*
X004379Y009456D02*
X004169Y009456D01*
X004169Y009398D02*
X004379Y009398D01*
X004379Y009339D02*
X004169Y009339D01*
X004122Y009281D02*
X004398Y009281D01*
X004422Y009222D02*
X004064Y009222D01*
X002943Y008462D02*
X002883Y008462D01*
X002883Y008403D02*
X002943Y008403D01*
X002943Y008345D02*
X002883Y008345D01*
X002883Y008286D02*
X002943Y008286D01*
X002913Y008008D02*
X002913Y007264D01*
X002984Y007193D01*
X003310Y007116D02*
X003484Y007116D01*
X003484Y007058D02*
X003310Y007058D01*
X003310Y006999D02*
X003484Y006999D01*
X003484Y006941D02*
X003310Y006941D01*
X003273Y006882D02*
X003521Y006882D01*
X002606Y008579D02*
X002091Y008579D01*
X002091Y008637D02*
X002606Y008637D01*
X002611Y008696D02*
X002091Y008696D01*
X002091Y008754D02*
X002649Y008754D01*
X007390Y008988D02*
X008277Y008988D01*
X008277Y008930D02*
X008016Y008930D01*
X008062Y009047D02*
X008307Y009047D01*
X008330Y009398D02*
X008059Y009398D01*
X008002Y009866D02*
X007942Y009866D01*
X007942Y009924D02*
X008002Y009924D01*
X008002Y009983D02*
X007942Y009983D01*
X007942Y010041D02*
X008002Y010041D01*
X008002Y010100D02*
X007942Y010100D01*
X007942Y010158D02*
X007364Y010158D01*
X007364Y010100D02*
X007704Y010100D01*
X007704Y010041D02*
X007364Y010041D01*
X007364Y009983D02*
X007704Y009983D01*
X007710Y009924D02*
X007364Y009924D01*
X007364Y009866D02*
X007749Y009866D01*
X007704Y010217D02*
X007395Y010217D01*
X007453Y010275D02*
X007704Y010275D01*
X007704Y010334D02*
X007512Y010334D01*
X007570Y010392D02*
X007727Y010392D01*
X007942Y010392D02*
X008002Y010392D01*
X008002Y010334D02*
X007942Y010334D01*
X007942Y010275D02*
X008002Y010275D01*
X008002Y010217D02*
X007942Y010217D01*
X010433Y007818D02*
X015797Y007818D01*
X015797Y007760D02*
X010433Y007760D01*
X010433Y007701D02*
X015797Y007701D01*
X015797Y007643D02*
X010433Y007643D01*
X010433Y007584D02*
X015797Y007584D01*
X015797Y007526D02*
X010433Y007526D01*
X010433Y007467D02*
X015797Y007467D01*
X015797Y007409D02*
X010433Y007409D01*
X010433Y007350D02*
X015797Y007350D01*
X015797Y007292D02*
X010433Y007292D01*
X010433Y007233D02*
X015797Y007233D01*
X015797Y007175D02*
X010433Y007175D01*
X010433Y007116D02*
X015797Y007116D01*
X015797Y007058D02*
X010433Y007058D01*
X010433Y006999D02*
X015797Y006999D01*
X015797Y006941D02*
X010433Y006941D01*
X010433Y006882D02*
X015797Y006882D01*
X015797Y006824D02*
X010433Y006824D01*
X010433Y006765D02*
X015797Y006765D01*
X015797Y006707D02*
X010433Y006707D01*
X010433Y006648D02*
X015797Y006648D01*
X015770Y006590D02*
X010433Y006590D01*
X010433Y006531D02*
X015712Y006531D01*
X015653Y006473D02*
X010433Y006473D01*
X010433Y006414D02*
X015595Y006414D01*
X015536Y006356D02*
X010433Y006356D01*
X010433Y006297D02*
X015478Y006297D01*
X015419Y006239D02*
X010433Y006239D01*
X010433Y006180D02*
X015361Y006180D01*
X015302Y006122D02*
X012168Y006122D01*
X012227Y006063D02*
X015244Y006063D01*
X015259Y005909D02*
X015917Y006567D01*
X015917Y007828D01*
X015543Y008240D02*
X015374Y008240D01*
X015380Y008403D02*
X015537Y008403D01*
X015595Y008462D02*
X015321Y008462D01*
X015263Y008520D02*
X015654Y008520D01*
X015712Y008579D02*
X015204Y008579D01*
X015146Y008637D02*
X015771Y008637D01*
X015829Y008696D02*
X015087Y008696D01*
X015029Y008754D02*
X015888Y008754D01*
X015946Y008813D02*
X014970Y008813D01*
X014912Y008871D02*
X016005Y008871D01*
X016063Y008930D02*
X014853Y008930D01*
X014808Y008975D02*
X014808Y008975D01*
X014795Y008988D02*
X016122Y008988D01*
X016387Y009281D02*
X015139Y009281D01*
X015201Y009339D02*
X016387Y009339D01*
X016387Y009398D02*
X015263Y009398D01*
X015326Y009456D02*
X016387Y009456D01*
X016387Y009515D02*
X015389Y009515D01*
X015451Y009573D02*
X016387Y009573D01*
X016387Y009632D02*
X015514Y009632D01*
X015577Y009690D02*
X016387Y009690D01*
X016387Y009749D02*
X015639Y009749D01*
X015702Y009807D02*
X016387Y009807D01*
X016387Y009866D02*
X015765Y009866D01*
X015827Y009924D02*
X016387Y009924D01*
X016627Y009690D02*
X016646Y009690D01*
X016627Y009632D02*
X016710Y009632D01*
X016627Y009573D02*
X016806Y009573D01*
X016836Y009398D02*
X016627Y009398D01*
X016627Y009456D02*
X016950Y009456D01*
X016986Y009573D02*
X017046Y009573D01*
X017046Y009632D02*
X016986Y009632D01*
X016986Y009690D02*
X017046Y009690D01*
X017046Y009749D02*
X016986Y009749D01*
X016986Y009807D02*
X017046Y009807D01*
X017046Y009866D02*
X016986Y009866D01*
X016986Y009924D02*
X017046Y009924D01*
X017046Y009983D02*
X016986Y009983D01*
X016986Y010057D02*
X016986Y010527D01*
X016977Y010527D01*
X016899Y010515D01*
X016824Y010491D01*
X016754Y010455D01*
X016691Y010409D01*
X016635Y010353D01*
X016627Y010342D01*
X016627Y010454D01*
X016833Y010660D01*
X016856Y010637D01*
X017025Y010567D01*
X017208Y010567D01*
X017377Y010637D01*
X017468Y010729D01*
X017468Y010242D01*
X017444Y010289D01*
X017398Y010353D01*
X017342Y010409D01*
X017278Y010455D01*
X017208Y010491D01*
X017134Y010515D01*
X017056Y010527D01*
X017046Y010527D01*
X017046Y010057D01*
X016986Y010057D01*
X016986Y010100D02*
X017046Y010100D01*
X017046Y010158D02*
X016986Y010158D01*
X016986Y010217D02*
X017046Y010217D01*
X017046Y010275D02*
X016986Y010275D01*
X016986Y010334D02*
X017046Y010334D01*
X017046Y010392D02*
X016986Y010392D01*
X016986Y010451D02*
X017046Y010451D01*
X017046Y010509D02*
X016986Y010509D01*
X017024Y010568D02*
X016741Y010568D01*
X016683Y010509D02*
X016882Y010509D01*
X016882Y010626D02*
X016800Y010626D01*
X016749Y010451D02*
X016627Y010451D01*
X016627Y010392D02*
X016674Y010392D01*
X016507Y010504D02*
X016507Y009204D01*
X015543Y008240D01*
X016578Y009105D02*
X016656Y009105D01*
X016675Y009164D02*
X016627Y009164D01*
X016627Y009222D02*
X016699Y009222D01*
X016724Y009281D02*
X016627Y009281D01*
X016627Y009339D02*
X016778Y009339D01*
X016627Y009515D02*
X017468Y009515D01*
X017468Y009573D02*
X017227Y009573D01*
X017323Y009632D02*
X017468Y009632D01*
X017468Y009690D02*
X017387Y009690D01*
X017432Y009749D02*
X017468Y009749D01*
X017466Y009807D02*
X017468Y009807D01*
X017468Y009456D02*
X017283Y009456D01*
X017396Y009398D02*
X017468Y009398D01*
X017468Y009339D02*
X017455Y009339D01*
X016997Y008579D02*
X016838Y008579D01*
X014963Y009807D02*
X014903Y009807D01*
X014903Y009866D02*
X014963Y009866D01*
X014963Y009924D02*
X014903Y009924D01*
X014903Y009983D02*
X014963Y009983D01*
X014963Y010041D02*
X014903Y010041D01*
X014903Y010217D02*
X014963Y010217D01*
X014963Y010275D02*
X014903Y010275D01*
X014903Y010334D02*
X014963Y010334D01*
X014963Y010392D02*
X014903Y010392D01*
X015069Y010860D02*
X014569Y010860D01*
X014628Y010919D02*
X015010Y010919D01*
X015003Y010977D02*
X014686Y010977D01*
X014745Y011036D02*
X015003Y011036D01*
X015003Y011094D02*
X014803Y011094D01*
X014823Y011153D02*
X015043Y011153D01*
X015102Y011211D02*
X014823Y011211D01*
X014823Y011270D02*
X014985Y011270D01*
X014979Y011274D02*
X015008Y011257D01*
X015041Y011248D01*
X015206Y011248D01*
X015206Y011485D01*
X015266Y011485D01*
X015266Y011248D01*
X015430Y011248D01*
X015463Y011257D01*
X015493Y011274D01*
X015517Y011298D01*
X015534Y011328D01*
X015548Y011328D01*
X015534Y011328D02*
X015543Y011361D01*
X015543Y011485D01*
X015266Y011485D01*
X015266Y011545D01*
X015533Y011545D01*
X015549Y011518D01*
X015573Y011494D01*
X015603Y011477D01*
X015636Y011468D01*
X015800Y011468D01*
X015800Y011706D01*
X015533Y011706D01*
X015517Y011733D01*
X015493Y011757D01*
X015463Y011774D01*
X015430Y011783D01*
X015266Y011783D01*
X015266Y011545D01*
X015206Y011545D01*
X015206Y011485D01*
X014929Y011485D01*
X014929Y011361D01*
X014937Y011328D01*
X014823Y011328D01*
X014823Y011387D02*
X014929Y011387D01*
X014929Y011445D02*
X014823Y011445D01*
X014823Y011504D02*
X015206Y011504D01*
X015206Y011545D02*
X014929Y011545D01*
X014929Y011670D01*
X014937Y011703D01*
X014955Y011733D01*
X014979Y011757D01*
X015008Y011774D01*
X015041Y011783D01*
X015206Y011783D01*
X015206Y011545D01*
X015206Y011562D02*
X015266Y011562D01*
X015266Y011504D02*
X015563Y011504D01*
X015543Y011445D02*
X015609Y011445D01*
X015563Y011387D02*
X015543Y011387D01*
X015490Y011270D02*
X015486Y011270D01*
X015431Y011211D02*
X015354Y011211D01*
X015266Y011270D02*
X015206Y011270D01*
X015206Y011328D02*
X015266Y011328D01*
X015266Y011387D02*
X015206Y011387D01*
X015206Y011445D02*
X015266Y011445D01*
X015266Y011621D02*
X015206Y011621D01*
X015206Y011679D02*
X015266Y011679D01*
X015266Y011738D02*
X015206Y011738D01*
X015021Y011799D02*
X014969Y011852D01*
X014969Y012202D01*
X014990Y012223D01*
X014927Y012223D01*
X014896Y012192D01*
X014709Y012192D01*
X014578Y012324D01*
X014578Y012510D01*
X014709Y012642D01*
X014896Y012642D01*
X014974Y012563D01*
X015283Y012563D01*
X015382Y012464D01*
X015418Y012428D01*
X015418Y012255D01*
X015450Y012255D01*
X015503Y012202D01*
X015503Y011852D01*
X015450Y011799D01*
X015021Y011799D01*
X014969Y011855D02*
X014881Y011855D01*
X014881Y011913D02*
X014969Y011913D01*
X014969Y011972D02*
X014881Y011972D01*
X014876Y012030D02*
X014969Y012030D01*
X014969Y012089D02*
X014100Y012089D01*
X014040Y012147D02*
X014969Y012147D01*
X014972Y012206D02*
X014910Y012206D01*
X015236Y012027D02*
X015248Y012039D01*
X015418Y012264D02*
X016617Y012264D01*
X016626Y012288D02*
X016556Y012119D01*
X016556Y011936D01*
X016626Y011767D01*
X016756Y011637D01*
X016925Y011567D01*
X017108Y011567D01*
X017277Y011637D01*
X017406Y011767D01*
X017469Y011917D01*
X017469Y011326D01*
X017377Y011417D01*
X017208Y011487D01*
X017025Y011487D01*
X016856Y011417D01*
X016726Y011288D01*
X016656Y011119D01*
X016656Y010936D01*
X016690Y010856D01*
X016688Y010860D02*
X016016Y010860D01*
X016016Y010919D02*
X016663Y010919D01*
X016656Y010977D02*
X016016Y010977D01*
X016084Y011036D02*
X016656Y011036D01*
X016656Y011094D02*
X016097Y011094D01*
X016097Y011153D02*
X016671Y011153D01*
X016695Y011211D02*
X016097Y011211D01*
X016097Y011270D02*
X016719Y011270D01*
X016767Y011328D02*
X016097Y011328D01*
X016097Y011387D02*
X016825Y011387D01*
X016924Y011445D02*
X016051Y011445D01*
X016058Y011477D02*
X016087Y011494D01*
X016111Y011518D01*
X016129Y011548D01*
X016137Y011581D01*
X016137Y011706D01*
X015860Y011706D01*
X015860Y011468D01*
X016024Y011468D01*
X016058Y011477D01*
X016097Y011504D02*
X017469Y011504D01*
X017469Y011562D02*
X016132Y011562D01*
X016137Y011621D02*
X016796Y011621D01*
X016714Y011679D02*
X016137Y011679D01*
X016137Y011766D02*
X015860Y011766D01*
X015800Y011766D01*
X015800Y011706D01*
X015860Y011706D01*
X015860Y011766D01*
X015860Y012004D01*
X016024Y012004D01*
X016058Y011995D01*
X016087Y011978D01*
X016111Y011954D01*
X016129Y011924D01*
X016137Y011891D01*
X016137Y011766D01*
X016137Y011796D02*
X016614Y011796D01*
X016590Y011855D02*
X016137Y011855D01*
X016131Y011913D02*
X016566Y011913D01*
X016556Y011972D02*
X016093Y011972D01*
X015860Y011972D02*
X015800Y011972D01*
X015800Y012004D02*
X015636Y012004D01*
X015603Y011995D01*
X015573Y011978D01*
X015549Y011954D01*
X015532Y011924D01*
X015523Y011891D01*
X015523Y011766D01*
X015800Y011766D01*
X015800Y012004D01*
X015800Y011913D02*
X015860Y011913D01*
X015860Y011855D02*
X015800Y011855D01*
X015800Y011796D02*
X015860Y011796D01*
X015860Y011738D02*
X016655Y011738D01*
X016556Y012030D02*
X015503Y012030D01*
X015503Y011972D02*
X015567Y011972D01*
X015529Y011913D02*
X015503Y011913D01*
X015503Y011855D02*
X015523Y011855D01*
X015523Y011796D02*
X014881Y011796D01*
X014881Y011738D02*
X014959Y011738D01*
X014931Y011679D02*
X014881Y011679D01*
X014881Y011621D02*
X014929Y011621D01*
X014929Y011562D02*
X014847Y011562D01*
X014937Y011328D02*
X014955Y011298D01*
X014979Y011274D01*
X014483Y011445D02*
X012131Y011445D01*
X012168Y011504D02*
X014483Y011504D01*
X014459Y011562D02*
X014335Y011562D01*
X014369Y011621D02*
X014425Y011621D01*
X014425Y011679D02*
X014369Y011679D01*
X014369Y011738D02*
X014425Y011738D01*
X014425Y011796D02*
X014369Y011796D01*
X014369Y011855D02*
X014425Y011855D01*
X014425Y011913D02*
X014369Y011913D01*
X014369Y011972D02*
X014425Y011972D01*
X014430Y012030D02*
X014364Y012030D01*
X014637Y012264D02*
X013921Y012264D01*
X013981Y012206D02*
X014696Y012206D01*
X014579Y012323D02*
X013861Y012323D01*
X013802Y012381D02*
X014578Y012381D01*
X014578Y012440D02*
X013742Y012440D01*
X013682Y012498D02*
X014578Y012498D01*
X014624Y012557D02*
X013622Y012557D01*
X013563Y012615D02*
X014683Y012615D01*
X014923Y012615D02*
X017469Y012615D01*
X017469Y012557D02*
X015289Y012557D01*
X015348Y012498D02*
X017469Y012498D01*
X017469Y012440D02*
X017222Y012440D01*
X017277Y012417D02*
X017108Y012487D01*
X016925Y012487D01*
X016756Y012417D01*
X016626Y012288D01*
X016661Y012323D02*
X015418Y012323D01*
X015418Y012381D02*
X016720Y012381D01*
X016810Y012440D02*
X015406Y012440D01*
X015499Y012206D02*
X016593Y012206D01*
X016568Y012147D02*
X015503Y012147D01*
X015503Y012089D02*
X016556Y012089D01*
X015860Y011679D02*
X015800Y011679D01*
X015800Y011621D02*
X015860Y011621D01*
X015860Y011562D02*
X015800Y011562D01*
X015800Y011504D02*
X015860Y011504D01*
X015800Y011738D02*
X015512Y011738D01*
X015732Y011224D02*
X015830Y011224D01*
X015822Y011216D01*
X016507Y010504D02*
X017031Y011027D01*
X017116Y011027D01*
X017425Y010685D02*
X017468Y010685D01*
X017468Y010626D02*
X017351Y010626D01*
X017468Y010568D02*
X017209Y010568D01*
X017151Y010509D02*
X017468Y010509D01*
X017468Y010451D02*
X017284Y010451D01*
X017358Y010392D02*
X017468Y010392D01*
X017468Y010334D02*
X017412Y010334D01*
X017451Y010275D02*
X017468Y010275D01*
X017466Y011328D02*
X017469Y011328D01*
X017469Y011387D02*
X017407Y011387D01*
X017469Y011445D02*
X017309Y011445D01*
X017237Y011621D02*
X017469Y011621D01*
X017469Y011679D02*
X017319Y011679D01*
X017378Y011738D02*
X017469Y011738D01*
X017469Y011796D02*
X017419Y011796D01*
X017443Y011855D02*
X017469Y011855D01*
X017467Y011913D02*
X017469Y011913D01*
X017469Y012137D02*
X017406Y012288D01*
X017277Y012417D01*
X017313Y012381D02*
X017469Y012381D01*
X017469Y012323D02*
X017371Y012323D01*
X017416Y012264D02*
X017469Y012264D01*
X017469Y012206D02*
X017440Y012206D01*
X017465Y012147D02*
X017469Y012147D01*
X017469Y012137D02*
X017469Y012804D01*
X002085Y012816D01*
X002085Y012791D02*
X012681Y012791D01*
X012623Y012732D02*
X002085Y012732D01*
X002085Y012674D02*
X012564Y012674D01*
X012550Y012615D02*
X002086Y012615D01*
X002086Y012557D02*
X012550Y012557D01*
X012642Y012381D02*
X012168Y012381D01*
X012168Y012323D02*
X013375Y012323D01*
X013316Y012381D02*
X012908Y012381D01*
X012976Y012563D02*
X012972Y012567D01*
X012775Y012567D01*
X012779Y012563D01*
X012869Y012791D02*
X017469Y012791D01*
X017469Y012732D02*
X013444Y012732D01*
X013503Y012674D02*
X017469Y012674D01*
X013913Y011679D02*
X012168Y011679D01*
X012168Y011621D02*
X013913Y011621D01*
X013947Y011562D02*
X012168Y011562D01*
X012168Y011855D02*
X013853Y011855D01*
X013794Y011913D02*
X012168Y011913D01*
X012168Y011972D02*
X013734Y011972D01*
X013674Y012030D02*
X012168Y012030D01*
X012168Y012089D02*
X013614Y012089D01*
X013555Y012147D02*
X012168Y012147D01*
X012168Y012206D02*
X013495Y012206D01*
X013435Y012264D02*
X012168Y012264D01*
X011358Y011679D02*
X011205Y011679D01*
X011264Y011621D02*
X011358Y011621D01*
X011358Y011562D02*
X011322Y011562D01*
X011841Y009222D02*
X011930Y009222D01*
X011957Y006122D02*
X010433Y006122D01*
X010433Y006063D02*
X011898Y006063D01*
X011840Y006005D02*
X010433Y006005D01*
X010433Y005946D02*
X011837Y005946D01*
X011837Y005888D02*
X010433Y005888D01*
X010433Y005829D02*
X011837Y005829D01*
X011775Y005771D02*
X010661Y005771D01*
X010719Y005712D02*
X011717Y005712D01*
X011885Y005563D02*
X010543Y005571D01*
X010710Y005420D02*
X011710Y005420D01*
X011768Y005361D02*
X010652Y005361D01*
X010434Y005361D02*
X010433Y005361D01*
X010433Y005303D02*
X015794Y005303D01*
X015794Y005361D02*
X012002Y005361D01*
X012061Y005420D02*
X015794Y005420D01*
X015813Y005478D02*
X012110Y005478D01*
X012110Y005537D02*
X015872Y005537D01*
X016019Y005366D02*
X016019Y005025D01*
X017016Y004027D01*
X016156Y004718D02*
X013881Y004718D01*
X013939Y004776D02*
X016098Y004776D01*
X016039Y004835D02*
X013983Y004835D01*
X013983Y004893D02*
X015981Y004893D01*
X015922Y004952D02*
X013983Y004952D01*
X013983Y005010D02*
X015899Y005010D01*
X015899Y005069D02*
X013928Y005069D01*
X013870Y005127D02*
X015899Y005127D01*
X015881Y005186D02*
X010433Y005186D01*
X010433Y005244D02*
X015823Y005244D01*
X016166Y005537D02*
X016917Y005537D01*
X016763Y005595D02*
X012110Y005595D01*
X012110Y005654D02*
X016683Y005654D01*
X016627Y005712D02*
X012184Y005712D01*
X012242Y005771D02*
X016586Y005771D01*
X016556Y005829D02*
X015349Y005829D01*
X015408Y005888D02*
X016536Y005888D01*
X016523Y005946D02*
X015466Y005946D01*
X015259Y005909D02*
X012062Y005909D01*
X013625Y005127D02*
X010433Y005127D01*
X009948Y004718D02*
X013614Y004718D01*
X012475Y003782D02*
X011910Y003782D01*
X011968Y003723D02*
X012476Y003723D01*
X012478Y003665D02*
X012027Y003665D01*
X012039Y003606D02*
X012479Y003606D01*
X012481Y003548D02*
X012039Y003548D01*
X012086Y003489D02*
X012482Y003489D01*
X012484Y003431D02*
X012157Y003431D01*
X012227Y003372D02*
X012485Y003372D01*
X012487Y003314D02*
X012298Y003314D01*
X012369Y003255D02*
X012489Y003255D01*
X012490Y003197D02*
X012439Y003197D01*
X012511Y003138D02*
X015524Y003180D01*
X015419Y003075D01*
X015419Y002885D01*
X015554Y002750D01*
X015744Y002750D01*
X015791Y002797D01*
X015791Y002705D01*
X015844Y002653D01*
X016128Y002653D01*
X016142Y002639D01*
X016172Y002621D01*
X016205Y002613D01*
X016305Y002613D01*
X016305Y002827D01*
X016350Y002827D01*
X016350Y002613D01*
X016450Y002613D01*
X016483Y002621D01*
X016513Y002639D01*
X016537Y002663D01*
X016554Y002692D01*
X016563Y002726D01*
X016563Y002827D01*
X016350Y002827D01*
X016350Y002873D01*
X016305Y002873D01*
X016305Y003088D01*
X016205Y003088D01*
X016172Y003079D01*
X016142Y003062D01*
X016128Y003048D01*
X015879Y003048D01*
X015879Y003075D01*
X015771Y003184D01*
X016689Y003197D01*
X016656Y003119D01*
X016656Y002936D01*
X016726Y002767D01*
X016856Y002637D01*
X017025Y002567D01*
X017208Y002567D01*
X017377Y002637D01*
X017466Y002726D01*
X017466Y002247D01*
X017444Y002289D01*
X017398Y002353D01*
X017342Y002409D01*
X017278Y002455D01*
X017208Y002491D01*
X017134Y002515D01*
X017056Y002527D01*
X017046Y002527D01*
X017046Y002057D01*
X016986Y002057D01*
X016986Y001997D01*
X016516Y001997D01*
X016516Y001988D01*
X016529Y001910D01*
X016122Y001910D01*
X016117Y001899D02*
X016175Y002038D01*
X016175Y002189D01*
X016117Y002329D01*
X016010Y002436D01*
X015870Y002494D01*
X015719Y002494D01*
X015580Y002436D01*
X015530Y002436D01*
X015540Y002413D02*
X015502Y002503D01*
X015434Y002572D01*
X015412Y002580D01*
X015411Y002642D01*
X015413Y002644D01*
X015411Y002692D01*
X015410Y002740D01*
X015409Y002741D01*
X015409Y002743D01*
X015374Y002776D01*
X015339Y002809D01*
X015337Y002809D01*
X015051Y003074D01*
X015018Y003108D01*
X015015Y003108D01*
X015013Y003110D01*
X014966Y003108D01*
X013738Y003112D01*
X013730Y003120D01*
X012534Y003120D01*
X012511Y003138D01*
X012550Y003138D02*
X015482Y003138D01*
X015424Y003080D02*
X015046Y003080D01*
X015108Y003021D02*
X015419Y003021D01*
X015419Y002963D02*
X015172Y002963D01*
X015235Y002904D02*
X015419Y002904D01*
X015458Y002846D02*
X015298Y002846D01*
X015362Y002787D02*
X015517Y002787D01*
X015410Y002729D02*
X015791Y002729D01*
X015782Y002787D02*
X015791Y002787D01*
X015826Y002670D02*
X015412Y002670D01*
X015412Y002612D02*
X016917Y002612D01*
X016899Y002515D02*
X016824Y002491D01*
X016754Y002455D01*
X016691Y002409D01*
X016635Y002353D01*
X016589Y002289D01*
X016553Y002219D01*
X016529Y002144D01*
X016175Y002144D01*
X016169Y002202D02*
X016548Y002202D01*
X016529Y002144D02*
X016516Y002067D01*
X016516Y002057D01*
X016986Y002057D01*
X016986Y002527D01*
X016977Y002527D01*
X016899Y002515D01*
X016837Y002495D02*
X015506Y002495D01*
X015452Y002553D02*
X017466Y002553D01*
X017466Y002495D02*
X017195Y002495D01*
X017304Y002436D02*
X017466Y002436D01*
X017466Y002378D02*
X017373Y002378D01*
X017422Y002319D02*
X017466Y002319D01*
X017459Y002261D02*
X017466Y002261D01*
X017466Y002612D02*
X017315Y002612D01*
X017410Y002670D02*
X017466Y002670D01*
X017046Y002495D02*
X016986Y002495D01*
X016986Y002436D02*
X017046Y002436D01*
X017046Y002378D02*
X016986Y002378D01*
X016986Y002319D02*
X017046Y002319D01*
X017046Y002261D02*
X016986Y002261D01*
X016986Y002202D02*
X017046Y002202D01*
X017046Y002144D02*
X016986Y002144D01*
X016986Y002085D02*
X017046Y002085D01*
X016986Y002027D02*
X016170Y002027D01*
X016175Y002085D02*
X016519Y002085D01*
X016520Y001968D02*
X016146Y001968D01*
X016117Y001899D02*
X016010Y001792D01*
X015870Y001734D01*
X015719Y001734D01*
X015580Y001792D01*
X015540Y001832D01*
X015540Y001815D01*
X015502Y001725D01*
X015434Y001656D01*
X015344Y001619D01*
X015277Y001619D01*
X015027Y001340D01*
X015027Y001334D01*
X015022Y001329D01*
X017465Y001329D01*
X017465Y001807D01*
X017444Y001765D01*
X017398Y001702D01*
X017342Y001646D01*
X017278Y001600D01*
X017208Y001564D01*
X017134Y001540D01*
X017056Y001527D01*
X017046Y001527D01*
X017046Y001997D01*
X016986Y001997D01*
X016986Y001527D01*
X016977Y001527D01*
X016899Y001540D01*
X016824Y001564D01*
X016754Y001600D01*
X016691Y001646D01*
X016635Y001702D01*
X016589Y001765D01*
X016553Y001835D01*
X016529Y001910D01*
X016548Y001851D02*
X016070Y001851D01*
X016011Y001793D02*
X016575Y001793D01*
X016611Y001734D02*
X015871Y001734D01*
X015718Y001734D02*
X015506Y001734D01*
X015531Y001793D02*
X015578Y001793D01*
X015453Y001676D02*
X016661Y001676D01*
X016730Y001617D02*
X015275Y001617D01*
X015223Y001559D02*
X016840Y001559D01*
X016986Y001559D02*
X017046Y001559D01*
X017046Y001617D02*
X016986Y001617D01*
X016986Y001676D02*
X017046Y001676D01*
X017046Y001734D02*
X016986Y001734D01*
X016986Y001793D02*
X017046Y001793D01*
X017046Y001851D02*
X016986Y001851D01*
X016986Y001910D02*
X017046Y001910D01*
X017046Y001968D02*
X016986Y001968D01*
X017303Y001617D02*
X017465Y001617D01*
X017465Y001559D02*
X017193Y001559D01*
X017372Y001676D02*
X017465Y001676D01*
X017465Y001734D02*
X017422Y001734D01*
X017458Y001793D02*
X017465Y001793D01*
X017465Y001500D02*
X015171Y001500D01*
X015118Y001442D02*
X017465Y001442D01*
X017465Y001383D02*
X015066Y001383D01*
X014821Y001559D02*
X014142Y001559D01*
X014139Y001552D02*
X014811Y001548D01*
X014893Y001639D01*
X014844Y001619D01*
X014746Y001619D01*
X014656Y001656D01*
X014587Y001725D01*
X014566Y001775D01*
X014547Y001729D01*
X014516Y001682D01*
X014476Y001643D01*
X014430Y001611D01*
X014378Y001590D01*
X014325Y001579D01*
X014325Y001834D01*
X014265Y001834D01*
X014265Y001579D01*
X014212Y001590D01*
X014163Y001610D01*
X014139Y001552D01*
X014265Y001617D02*
X014325Y001617D01*
X014325Y001676D02*
X014265Y001676D01*
X014265Y001734D02*
X014325Y001734D01*
X014325Y001793D02*
X014265Y001793D01*
X014295Y001864D02*
X014295Y001878D01*
X014047Y002126D01*
X013578Y002126D01*
X013035Y002669D01*
X012913Y002495D02*
X013415Y002495D01*
X013415Y002438D02*
X013415Y002589D01*
X013473Y002729D01*
X013580Y002836D01*
X013666Y002872D01*
X013639Y002872D01*
X013639Y002872D01*
X013638Y002872D01*
X013631Y002880D01*
X012644Y002880D01*
X012644Y002764D01*
X013323Y002085D01*
X013699Y002085D01*
X013719Y002094D02*
X013580Y002036D01*
X013473Y001929D01*
X013415Y001789D01*
X013415Y001673D01*
X013323Y001746D01*
X013323Y002085D01*
X013323Y002027D02*
X013570Y002027D01*
X013512Y001968D02*
X013323Y001968D01*
X013323Y001910D02*
X013465Y001910D01*
X013440Y001851D02*
X013323Y001851D01*
X013323Y001793D02*
X013416Y001793D01*
X013415Y001734D02*
X013337Y001734D01*
X013411Y001676D02*
X013415Y001676D01*
X013149Y001500D02*
X011221Y001500D01*
X011279Y001559D02*
X013075Y001559D01*
X013023Y001617D02*
X011338Y001617D01*
X011396Y001676D02*
X013021Y001676D01*
X013023Y001734D02*
X011455Y001734D01*
X011513Y001793D02*
X013023Y001793D01*
X013023Y001851D02*
X011564Y001851D01*
X011564Y001910D02*
X013023Y001910D01*
X013016Y001968D02*
X011564Y001968D01*
X011564Y002027D02*
X012957Y002027D01*
X012899Y002085D02*
X011564Y002085D01*
X011564Y002144D02*
X012840Y002144D01*
X012782Y002202D02*
X011564Y002202D01*
X011564Y002261D02*
X012723Y002261D01*
X012665Y002319D02*
X011564Y002319D01*
X011564Y002378D02*
X012606Y002378D01*
X012548Y002436D02*
X011564Y002436D01*
X011564Y002495D02*
X012489Y002495D01*
X012310Y002553D02*
X011564Y002553D01*
X011564Y002612D02*
X012252Y002612D01*
X012193Y002670D02*
X011564Y002670D01*
X011564Y002729D02*
X012174Y002729D01*
X012174Y002787D02*
X011564Y002787D01*
X011564Y002846D02*
X012174Y002846D01*
X012194Y002904D02*
X011564Y002904D01*
X011564Y002963D02*
X012252Y002963D01*
X012275Y003021D02*
X011564Y003021D01*
X011564Y003080D02*
X012204Y003080D01*
X012134Y003138D02*
X011564Y003138D01*
X011564Y003197D02*
X012063Y003197D01*
X011992Y003255D02*
X011564Y003255D01*
X011564Y003314D02*
X011922Y003314D01*
X011683Y003372D02*
X011564Y003372D01*
X011595Y003431D02*
X011624Y003431D01*
X011814Y003559D02*
X012413Y003063D01*
X012492Y003000D01*
X013681Y003000D01*
X013688Y002992D01*
X014968Y002988D01*
X015291Y002689D01*
X015295Y002364D01*
X015540Y002396D02*
X015540Y002413D01*
X015540Y002396D02*
X015580Y002436D01*
X016009Y002436D02*
X016729Y002436D01*
X016660Y002378D02*
X016068Y002378D01*
X016121Y002319D02*
X016611Y002319D01*
X016574Y002261D02*
X016145Y002261D01*
X016305Y002670D02*
X016350Y002670D01*
X016350Y002729D02*
X016305Y002729D01*
X016305Y002787D02*
X016350Y002787D01*
X016350Y002846D02*
X016694Y002846D01*
X016669Y002904D02*
X016563Y002904D01*
X016563Y002873D02*
X016563Y002975D01*
X016554Y003008D01*
X016537Y003037D01*
X016513Y003062D01*
X016483Y003079D01*
X016450Y003088D01*
X016350Y003088D01*
X016350Y002873D01*
X016563Y002873D01*
X016563Y002787D02*
X016718Y002787D01*
X016764Y002729D02*
X016563Y002729D01*
X016541Y002670D02*
X016823Y002670D01*
X016656Y002963D02*
X016563Y002963D01*
X016546Y003021D02*
X016656Y003021D01*
X016656Y003080D02*
X016479Y003080D01*
X016350Y003080D02*
X016305Y003080D01*
X016305Y003021D02*
X016350Y003021D01*
X016350Y002963D02*
X016305Y002963D01*
X016305Y002904D02*
X016350Y002904D01*
X016176Y003080D02*
X015875Y003080D01*
X015816Y003138D02*
X016665Y003138D01*
X015986Y002850D02*
X015649Y002980D01*
X014807Y002732D02*
X014795Y002689D01*
X014795Y002364D01*
X014206Y002136D02*
X014160Y002116D01*
X014113Y002085D01*
X014073Y002046D01*
X014044Y002002D01*
X014010Y002036D01*
X013870Y002094D01*
X013719Y002094D01*
X013719Y002134D02*
X013870Y002134D01*
X014010Y002192D01*
X014074Y002256D01*
X014087Y002225D01*
X014156Y002156D01*
X014206Y002136D01*
X014186Y002144D02*
X013894Y002144D01*
X013891Y002085D02*
X014113Y002085D01*
X014061Y002027D02*
X014019Y002027D01*
X014021Y002202D02*
X014110Y002202D01*
X013719Y002134D02*
X013580Y002192D01*
X013473Y002299D01*
X013415Y002438D01*
X013416Y002436D02*
X012972Y002436D01*
X013030Y002378D02*
X013440Y002378D01*
X013464Y002319D02*
X013089Y002319D01*
X013147Y002261D02*
X013510Y002261D01*
X013569Y002202D02*
X013206Y002202D01*
X013264Y002144D02*
X013695Y002144D01*
X013415Y002553D02*
X012855Y002553D01*
X012796Y002612D02*
X013424Y002612D01*
X013448Y002670D02*
X012738Y002670D01*
X012679Y002729D02*
X013472Y002729D01*
X013531Y002787D02*
X012644Y002787D01*
X012644Y002846D02*
X013603Y002846D01*
X012415Y002793D02*
X012409Y002787D01*
X012358Y002102D02*
X012303Y002047D01*
X011724Y002047D01*
X012358Y002082D02*
X012374Y002067D01*
X012358Y002082D02*
X012358Y002102D01*
X010625Y003275D02*
X010157Y002807D01*
X010625Y003275D02*
X010625Y004153D01*
X010704Y004232D01*
X010704Y004327D01*
X011579Y003782D02*
X011719Y003782D01*
X011661Y003723D02*
X011637Y003723D01*
X009039Y002590D02*
X009039Y002582D01*
X004206Y002612D02*
X003965Y002612D01*
X003974Y002553D02*
X004148Y002553D01*
X004090Y002495D02*
X003974Y002495D01*
X003918Y002670D02*
X004206Y002670D01*
X014439Y001617D02*
X014873Y001617D01*
X014636Y001676D02*
X014510Y001676D01*
X014550Y001734D02*
X014583Y001734D01*
D25*
X010641Y007260D03*
D26*
X010968Y011232D03*
X015649Y002980D03*
X014807Y002732D03*
D27*
X012409Y002787D03*
X013748Y004917D03*
X009842Y004945D03*
X009755Y004260D03*
X010259Y009012D03*
X011960Y010685D03*
X012799Y009386D03*
X013821Y010129D03*
D28*
X011464Y010031D02*
X011377Y009945D01*
X011102Y009945D01*
X011094Y009952D01*
X011094Y009437D01*
X011082Y009425D01*
X011082Y009342D01*
X010976Y009236D01*
X010976Y009307D02*
X011027Y009358D01*
X011464Y010031D02*
X011464Y011208D01*
X011106Y011567D01*
X010389Y011567D01*
X010122Y011299D01*
X010122Y011102D01*
X010129Y011094D01*
X010129Y010712D01*
X008603Y008724D02*
X007811Y008724D01*
X007795Y008708D01*
X012409Y002787D02*
X013173Y002023D01*
X013173Y001673D01*
X013511Y001405D01*
X014877Y001397D01*
X015295Y001864D01*
D29*
X013748Y004917D02*
X010283Y004917D01*
X010263Y004937D01*
X010263Y008484D01*
X010027Y008720D01*
X010027Y008724D01*
X009403Y008724D01*
X010263Y008523D02*
X010976Y009236D01*
X010976Y009307D01*
X011027Y009358D02*
X011736Y009358D01*
X011885Y009508D01*
X012007Y009386D01*
X012799Y009386D01*
X011885Y009508D02*
X011885Y010610D01*
X011960Y010685D01*
X014153Y010685D01*
X014653Y011185D01*
X014653Y011811D01*
X014141Y011811D02*
X013374Y012563D01*
X012976Y012563D01*
X012779Y012563D01*
X014803Y012417D02*
X014826Y012393D01*
X015212Y012393D01*
X015248Y012358D01*
X015248Y012039D01*
X015677Y011216D02*
X015476Y011015D01*
X015232Y011015D01*
X015228Y011019D01*
X015618Y010685D02*
X015846Y010913D01*
X015846Y011208D01*
X015830Y011224D01*
X015822Y011216D02*
X015677Y011216D01*
X015618Y010685D02*
X014153Y010685D01*
X014401Y010129D02*
X013821Y010129D01*
X010263Y009008D02*
X010263Y008484D01*
X010263Y008488D02*
X010263Y008523D01*
X010263Y009008D02*
X010259Y009012D01*
X008496Y009551D02*
X008496Y010130D01*
X008484Y010141D01*
X007334Y007441D02*
X004956Y007445D01*
X004519Y007445D01*
X003527Y008437D01*
X003527Y008795D01*
X002925Y009397D01*
X002925Y010712D01*
X003164Y010952D01*
X007334Y007441D02*
X009842Y004945D01*
X009870Y004917D01*
X010283Y004917D01*
X005842Y002047D02*
X005838Y002051D01*
X003578Y002051D01*
D30*
X007480Y008701D02*
X007787Y008701D01*
X007795Y008708D01*
X007480Y008701D02*
X007224Y008956D01*
X007224Y010244D01*
X008661Y011681D01*
X009862Y011681D01*
X009862Y011669D01*
X009925Y011606D01*
X009925Y011413D01*
X010740Y010693D02*
X010740Y010212D01*
X010248Y009720D01*
X010096Y009720D02*
X009734Y009220D01*
X007795Y009220D01*
M02*
