G75*
%MOIN*%
%OFA0B0*%
%FSLAX24Y24*%
%IPPOS*%
%LPD*%
%AMOC8*
5,1,8,0,0,1.08239X$1,22.5*
%
%ADD10R,0.0651X0.1084*%
%ADD11C,0.0147*%
%ADD12R,0.0414X0.0336*%
%ADD13R,0.0275X0.0271*%
%ADD14R,0.0336X0.0414*%
%ADD15R,0.0271X0.0275*%
%ADD16R,0.0277X0.0532*%
%ADD17R,0.0315X0.0118*%
%ADD18R,0.0602X0.0740*%
%ADD19R,0.0454X0.0847*%
%ADD20C,0.1241*%
%ADD21C,0.0160*%
%ADD22R,0.1090X0.1090*%
%ADD23C,0.0460*%
%ADD24C,0.0800*%
%ADD25R,0.0926X0.0296*%
%ADD26C,0.0140*%
%ADD27R,0.1871X0.1871*%
%ADD28R,0.0434X0.0395*%
%ADD29R,0.0454X0.0257*%
%ADD30R,0.0847X0.0217*%
%ADD31R,0.0808X0.0769*%
%ADD32C,0.0330*%
%ADD33C,0.0360*%
%ADD34C,0.0340*%
%ADD35C,0.0350*%
D10*
X013009Y003850D03*
X015017Y003850D03*
D11*
X013029Y004932D03*
X012832Y004932D03*
X012931Y004748D03*
X013029Y005171D03*
X012832Y005171D03*
D12*
X009728Y003716D03*
X009728Y003204D03*
X006425Y002575D03*
X006425Y002063D03*
X004185Y004401D03*
X004185Y004913D03*
X012311Y011330D03*
X012311Y011842D03*
D13*
X014220Y009749D03*
X014220Y009408D03*
X014960Y009412D03*
X014960Y009753D03*
X014999Y006824D03*
X014999Y006483D03*
X015301Y005702D03*
X015301Y005361D03*
X012427Y005247D03*
X012427Y005588D03*
D14*
X011177Y002972D03*
X011173Y002508D03*
X011165Y002055D03*
X010653Y002055D03*
X010661Y002508D03*
X010665Y002972D03*
X009035Y002972D03*
X008523Y002972D03*
X007645Y002964D03*
X007133Y002964D03*
X007145Y002417D03*
X007657Y002417D03*
X007665Y001870D03*
X007153Y001870D03*
X005448Y002527D03*
X004937Y002527D03*
X003035Y005531D03*
X002523Y005531D03*
X010685Y001594D03*
X011196Y001594D03*
X012480Y010035D03*
X012992Y010035D03*
D15*
X013581Y009732D03*
X013922Y009732D03*
X011800Y009110D03*
X011459Y009110D03*
X014833Y007114D03*
X015174Y007114D03*
X013757Y005909D03*
X013416Y005909D03*
X012601Y004939D03*
X012601Y004619D03*
X012260Y004619D03*
X012260Y004939D03*
D16*
G36*
X005594Y003750D02*
X005591Y004025D01*
X006122Y004030D01*
X006125Y003755D01*
X005594Y003750D01*
G37*
G36*
X005601Y003002D02*
X005598Y003277D01*
X006129Y003282D01*
X006132Y003007D01*
X005601Y003002D01*
G37*
G36*
X004577Y002993D02*
X004574Y003268D01*
X005105Y003273D01*
X005108Y002998D01*
X004577Y002993D01*
G37*
G36*
X004574Y003367D02*
X004571Y003642D01*
X005102Y003647D01*
X005105Y003372D01*
X004574Y003367D01*
G37*
G36*
X004571Y003741D02*
X004568Y004016D01*
X005099Y004021D01*
X005102Y003746D01*
X004571Y003741D01*
G37*
D17*
X008377Y002224D03*
X008377Y002224D03*
X008377Y002027D03*
X008377Y001830D03*
X008377Y001634D03*
X009480Y001634D03*
X009480Y001830D03*
X009480Y002027D03*
X009480Y002224D03*
D18*
X008929Y001929D03*
D19*
X008141Y006330D03*
X007551Y006330D03*
X006960Y006330D03*
X006370Y006330D03*
X005779Y006330D03*
X005188Y006330D03*
X004598Y006330D03*
X004007Y006330D03*
X003417Y006330D03*
X002826Y006330D03*
X002826Y012236D03*
X003417Y012236D03*
X004007Y012236D03*
X004598Y012236D03*
X005188Y012236D03*
X005779Y012236D03*
X006370Y012236D03*
X006960Y012236D03*
X007551Y012236D03*
X008141Y012236D03*
D20*
X005149Y009480D03*
D21*
X012843Y010883D02*
X013143Y010883D01*
X013143Y011082D02*
X012843Y011082D01*
X012843Y011280D02*
X013143Y011280D01*
X013143Y011491D02*
X012843Y011491D01*
X012843Y011689D02*
X013143Y011689D01*
X013143Y011888D02*
X012843Y011888D01*
X013308Y012063D02*
X013308Y012363D01*
X013507Y012363D02*
X013507Y012063D01*
X013705Y012063D02*
X013705Y012363D01*
X013916Y012363D02*
X013916Y012063D01*
X014114Y012063D02*
X014114Y012363D01*
X014313Y012363D02*
X014313Y012063D01*
X014478Y011888D02*
X014778Y011888D01*
X014778Y011689D02*
X014478Y011689D01*
X014478Y011491D02*
X014778Y011491D01*
X014778Y011280D02*
X014478Y011280D01*
X014478Y011082D02*
X014778Y011082D01*
X014778Y010883D02*
X014478Y010883D01*
X014313Y010708D02*
X014313Y010408D01*
X014114Y010408D02*
X014114Y010708D01*
X013916Y010708D02*
X013916Y010408D01*
X013705Y010408D02*
X013705Y010708D01*
X013507Y010708D02*
X013507Y010408D01*
X013308Y010408D02*
X013308Y010708D01*
D22*
X013814Y011389D03*
D23*
X013795Y002514D03*
X013795Y001714D03*
X015795Y002114D03*
D24*
X017016Y002027D03*
X017116Y003027D03*
X017016Y004027D03*
X017116Y005027D03*
X017016Y006027D03*
X017116Y007027D03*
X017016Y008027D03*
X017116Y009027D03*
X017016Y010027D03*
X017116Y011027D03*
X017016Y012027D03*
D25*
X009043Y005218D03*
X009043Y004718D03*
X009043Y004218D03*
X009043Y003718D03*
X006996Y003718D03*
X006996Y004218D03*
X006996Y004718D03*
X006996Y005218D03*
D26*
X011487Y006619D02*
X011721Y006619D01*
X011721Y006777D02*
X011487Y006777D01*
X011487Y006934D02*
X011721Y006934D01*
X011721Y007092D02*
X011487Y007092D01*
X011487Y007249D02*
X011721Y007249D01*
X011721Y007407D02*
X011487Y007407D01*
X011487Y007564D02*
X011721Y007564D01*
X011721Y007722D02*
X011487Y007722D01*
X011487Y007879D02*
X011721Y007879D01*
X011721Y008037D02*
X011487Y008037D01*
X011487Y008194D02*
X011721Y008194D01*
X011721Y008352D02*
X011487Y008352D01*
X011919Y008550D02*
X011919Y008784D01*
X012076Y008784D02*
X012076Y008550D01*
X012234Y008550D02*
X012234Y008784D01*
X012391Y008784D02*
X012391Y008550D01*
X012549Y008550D02*
X012549Y008784D01*
X012706Y008784D02*
X012706Y008550D01*
X012864Y008550D02*
X012864Y008784D01*
X013021Y008784D02*
X013021Y008550D01*
X013178Y008550D02*
X013178Y008784D01*
X013336Y008784D02*
X013336Y008550D01*
X013493Y008550D02*
X013493Y008784D01*
X013651Y008784D02*
X013651Y008550D01*
X013849Y008352D02*
X014083Y008352D01*
X014083Y008194D02*
X013849Y008194D01*
X013849Y008037D02*
X014083Y008037D01*
X014083Y007879D02*
X013849Y007879D01*
X013849Y007722D02*
X014083Y007722D01*
X014083Y007564D02*
X013849Y007564D01*
X013849Y007407D02*
X014083Y007407D01*
X014083Y007249D02*
X013849Y007249D01*
X013849Y007092D02*
X014083Y007092D01*
X014083Y006934D02*
X013849Y006934D01*
X013849Y006777D02*
X014083Y006777D01*
X014083Y006619D02*
X013849Y006619D01*
X013651Y006421D02*
X013651Y006187D01*
X013493Y006187D02*
X013493Y006421D01*
X013336Y006421D02*
X013336Y006187D01*
X013178Y006187D02*
X013178Y006421D01*
X013021Y006421D02*
X013021Y006187D01*
X012864Y006187D02*
X012864Y006421D01*
X012706Y006421D02*
X012706Y006187D01*
X012549Y006187D02*
X012549Y006421D01*
X012391Y006421D02*
X012391Y006187D01*
X012234Y006187D02*
X012234Y006421D01*
X012076Y006421D02*
X012076Y006187D01*
X011919Y006187D02*
X011919Y006421D01*
D27*
X012785Y007486D03*
D28*
X014344Y006132D03*
X014344Y005679D03*
X014915Y005679D03*
X014915Y006132D03*
D29*
X014590Y009323D03*
X014590Y009756D03*
D30*
X003685Y003771D03*
X003685Y003515D03*
X003685Y003260D03*
X003685Y003004D03*
X003685Y002748D03*
D31*
X002523Y001685D03*
X002523Y004834D03*
D32*
X005149Y005704D03*
X005177Y007078D03*
X006066Y007752D03*
X006846Y008559D03*
X008251Y007291D03*
X009476Y006606D03*
X010543Y005571D03*
X011885Y005563D03*
X012062Y005909D03*
X012055Y005232D03*
X010704Y004327D03*
X010858Y004012D03*
X011082Y003724D03*
X011444Y003598D03*
X011814Y003559D03*
X013035Y002669D03*
X012358Y002102D03*
X011724Y002047D03*
X010157Y002807D03*
X009677Y002704D03*
X010011Y002264D03*
X009901Y001858D03*
X009980Y001523D03*
X009039Y002582D03*
X005842Y002047D03*
X004303Y002389D03*
X012177Y006858D03*
X012641Y006858D03*
X013074Y006870D03*
X013106Y007287D03*
X013476Y007283D03*
X013499Y006886D03*
X014330Y006508D03*
X013464Y007720D03*
X013090Y007708D03*
X013062Y008122D03*
X013444Y008126D03*
X012629Y008122D03*
X012149Y008130D03*
X012173Y007724D03*
X012161Y007323D03*
X012649Y007307D03*
X012625Y007716D03*
X013051Y009075D03*
X013917Y009201D03*
X015086Y009043D03*
X016397Y008732D03*
X015464Y010149D03*
X015728Y010401D03*
X015228Y011019D03*
X014803Y012417D03*
X012775Y012567D03*
X009696Y011224D03*
X009385Y011421D03*
X008988Y011425D03*
X008669Y011189D03*
X008248Y010598D03*
X008496Y009551D03*
X010334Y010201D03*
X006988Y011559D03*
X004078Y009921D03*
X003944Y009421D03*
X003551Y009429D03*
X016019Y005366D03*
D33*
X010641Y007260D03*
D34*
X010968Y011232D03*
X015649Y002980D03*
X014807Y002732D03*
D35*
X012409Y002787D03*
X013748Y004917D03*
X009842Y004945D03*
X009755Y004260D03*
X010259Y009012D03*
X011960Y010685D03*
X012799Y009386D03*
X013821Y010129D03*
M02*
