%
M48
M72
T01C0.0130
T02C0.0140
T03C0.0150
T04C0.0160
T05C0.0400
T06C0.1181
%
T01
X4303Y2389
X5842Y2047
X9039Y2582
X9677Y2704
X10157Y2807
X10011Y2264
X9901Y1858
X9980Y1523
X11724Y2047
X12358Y2102
X13035Y2669
X11814Y3559
X11444Y3598
X11082Y3724
X10858Y4012
X10704Y4327
X12055Y5232
X11885Y5563
X12062Y5909
X12177Y6858
X12641Y6858
X13074Y6870
X13106Y7287
X13476Y7283
X13499Y6886
X14330Y6508
X13464Y7720
X13090Y7708
X13062Y8122
X13444Y8126
X12629Y8122
X12149Y8130
X12173Y7724
X12161Y7323
X12649Y7307
X12625Y7716
X13051Y9075
X13917Y9201
X15086Y9043
X16397Y8732
X15464Y10149
X15728Y10401
X15228Y11019
X14803Y12417
X12775Y12567
X9696Y11224
X9385Y11421
X8988Y11425
X8669Y11189
X8248Y10598
X8496Y9551
X6846Y8559
X6066Y7752
X5177Y7078
X5149Y5704
X8251Y7291
X9476Y6606
X10543Y5571
X16019Y5366
X10334Y10201
X6988Y11559
X4078Y9921
X3944Y9421
X3551Y9429
T02
X10968Y11232
X15649Y2980
X14807Y2732
T03
X12409Y2787
X13748Y4917
X9842Y4945
X9755Y4260
X10259Y9012
X11960Y10685
X12799Y9386
X13821Y10129
T04
X10641Y7260
T05
X13795Y2514
X13795Y1714
X15795Y2114
X17016Y2027
X17116Y3027
X17016Y4027
X17116Y5027
X17016Y6027
X17116Y7027
X17016Y8027
X17116Y9027
X17016Y10027
X17116Y11027
X17016Y12027
T06
X5149Y9480
M30
