G75*
%MOIN*%
%OFA0B0*%
%FSLAX24Y24*%
%IPPOS*%
%LPD*%
%AMOC8*
5,1,8,0,0,1.08239X$1,22.5*
%
%ADD10R,0.0336X0.0414*%
%ADD11R,0.0414X0.0336*%
%ADD12R,0.0240X0.0240*%
%ADD13R,0.0532X0.0572*%
%ADD14C,0.1241*%
%ADD15C,0.0370*%
%ADD16C,0.0460*%
%ADD17R,0.0591X0.0296*%
%ADD18R,0.0690X0.0532*%
%ADD19C,0.0800*%
%ADD20R,0.0158X0.0611*%
%ADD21R,0.0690X0.0926*%
%ADD22R,0.0532X0.0532*%
%ADD23R,0.0275X0.0271*%
%ADD24R,0.0271X0.0275*%
%ADD25C,0.0330*%
%ADD26C,0.0360*%
%ADD27C,0.0340*%
%ADD28C,0.0350*%
D10*
X007972Y010141D03*
X008484Y010141D03*
X014141Y011811D03*
X014653Y011811D03*
X014421Y010110D03*
X014933Y010110D03*
D11*
X015830Y011224D03*
X015830Y011736D03*
X015236Y011515D03*
X015236Y012027D03*
X011094Y010464D03*
X011094Y009952D03*
X007795Y009220D03*
X007795Y008708D03*
X002913Y008519D03*
X002913Y008008D03*
D12*
X003164Y010952D03*
X003504Y010952D03*
X003504Y011292D03*
X003164Y011292D03*
D13*
X008603Y008724D03*
X009403Y008724D03*
X009296Y009720D03*
X010096Y009720D03*
D14*
X005149Y009480D03*
D15*
X014295Y002364D03*
X014795Y002364D03*
X015295Y002364D03*
X015295Y001864D03*
X014795Y001864D03*
X014295Y001864D03*
D16*
X013795Y001714D03*
X013795Y002514D03*
X015795Y002114D03*
D17*
X003578Y002051D03*
X003578Y002445D03*
D18*
X002698Y001539D03*
X002698Y002956D03*
D19*
X017016Y002027D03*
X017116Y003027D03*
X017016Y004027D03*
X017116Y005027D03*
X017016Y006027D03*
X017116Y007027D03*
X017016Y008027D03*
X017116Y009027D03*
X017016Y010027D03*
X017116Y011027D03*
X017016Y012027D03*
D20*
X010720Y010712D03*
X010523Y010712D03*
X010326Y010712D03*
X010129Y010712D03*
X009933Y010712D03*
X009736Y010712D03*
X009539Y010712D03*
X009342Y010712D03*
X009145Y010712D03*
X008948Y010712D03*
D21*
X007905Y011952D03*
X011763Y011952D03*
D22*
X003811Y007193D03*
X002984Y007193D03*
D23*
X003244Y010097D03*
X003244Y010438D03*
X003649Y010446D03*
X003649Y010105D03*
D24*
X004207Y011618D03*
X004548Y011618D03*
X015986Y002850D03*
X016327Y002850D03*
D25*
X016019Y005366D03*
X014330Y006508D03*
X013499Y006886D03*
X013476Y007283D03*
X013106Y007287D03*
X013074Y006870D03*
X012641Y006858D03*
X012177Y006858D03*
X012161Y007323D03*
X012173Y007724D03*
X012625Y007716D03*
X012649Y007307D03*
X013090Y007708D03*
X013464Y007720D03*
X013444Y008126D03*
X013062Y008122D03*
X012629Y008122D03*
X012149Y008130D03*
X013051Y009075D03*
X013917Y009201D03*
X015086Y009043D03*
X016397Y008732D03*
X015464Y010149D03*
X015728Y010401D03*
X015228Y011019D03*
X014803Y012417D03*
X012775Y012567D03*
X009696Y011224D03*
X009385Y011421D03*
X008988Y011425D03*
X008669Y011189D03*
X008248Y010598D03*
X008496Y009551D03*
X006846Y008559D03*
X006066Y007752D03*
X005177Y007078D03*
X005149Y005704D03*
X008251Y007291D03*
X009476Y006606D03*
X010543Y005571D03*
X011885Y005563D03*
X012062Y005909D03*
X012055Y005232D03*
X010704Y004327D03*
X010858Y004012D03*
X011082Y003724D03*
X011444Y003598D03*
X011814Y003559D03*
X013035Y002669D03*
X012358Y002102D03*
X011724Y002047D03*
X010157Y002807D03*
X009677Y002704D03*
X010011Y002264D03*
X009901Y001858D03*
X009980Y001523D03*
X009039Y002582D03*
X005842Y002047D03*
X004303Y002389D03*
X003944Y009421D03*
X003551Y009429D03*
X004078Y009921D03*
X006988Y011559D03*
X010334Y010201D03*
D26*
X010641Y007260D03*
D27*
X010968Y011232D03*
X015649Y002980D03*
X014807Y002732D03*
D28*
X012409Y002787D03*
X013748Y004917D03*
X009842Y004945D03*
X009755Y004260D03*
X010259Y009012D03*
X011960Y010685D03*
X012799Y009386D03*
X013821Y010129D03*
M02*
