G75*
%MOIN*%
%OFA0B0*%
%FSLAX24Y24*%
%IPPOS*%
%LPD*%
%AMOC8*
5,1,8,0,0,1.08239X$1,22.5*
%
%ADD10C,0.0060*%
%ADD11C,0.0050*%
%ADD12C,0.0080*%
%ADD13R,0.0100X0.0100*%
D10*
X002917Y003837D02*
X003131Y003837D01*
X003238Y003944D01*
X003455Y003837D02*
X003882Y003837D01*
X003669Y003837D02*
X003669Y004477D01*
X003882Y004264D01*
X004100Y004477D02*
X004527Y004477D01*
X004527Y003837D01*
X004527Y004157D02*
X004313Y004157D01*
X004315Y004887D02*
X004315Y005207D01*
X004421Y005314D01*
X004528Y005207D01*
X004528Y004887D01*
X004742Y004887D02*
X004742Y005314D01*
X004635Y005314D01*
X004528Y005207D01*
X004097Y005207D02*
X004097Y004994D01*
X003990Y004887D01*
X003777Y004887D01*
X003670Y005100D02*
X004097Y005100D01*
X004097Y005207D02*
X003990Y005314D01*
X003777Y005314D01*
X003670Y005207D01*
X003670Y005100D01*
X003453Y004887D02*
X003453Y005314D01*
X003132Y005314D01*
X003026Y005207D01*
X003026Y004887D01*
X003238Y004477D02*
X002811Y004477D01*
X002917Y004264D02*
X002811Y004157D01*
X002811Y003944D01*
X002917Y003837D01*
X003024Y004264D02*
X003238Y004157D01*
X003238Y004477D01*
X003024Y004264D02*
X002917Y004264D01*
X003026Y005937D02*
X003453Y005937D01*
X003239Y005937D02*
X003239Y006577D01*
X003453Y006364D01*
X003670Y006150D02*
X003670Y006577D01*
X003670Y006150D02*
X003884Y005937D01*
X004097Y006150D01*
X004097Y006577D01*
X004315Y006577D02*
X004742Y006577D01*
X004742Y005937D01*
X004315Y005937D01*
X004528Y006257D02*
X004742Y006257D01*
X004959Y006257D02*
X005066Y006150D01*
X005386Y006150D01*
X005173Y006150D02*
X004959Y005937D01*
X004959Y006257D02*
X004959Y006471D01*
X005066Y006577D01*
X005386Y006577D01*
X005386Y005937D01*
X005386Y005527D02*
X005386Y004887D01*
X005604Y004887D02*
X005924Y004887D01*
X006031Y004994D01*
X006031Y005207D01*
X005924Y005314D01*
X005604Y005314D01*
X005386Y005207D02*
X005279Y005314D01*
X005066Y005314D01*
X004959Y005207D01*
X004959Y004887D01*
X005389Y004371D02*
X005496Y004477D01*
X005709Y004477D01*
X005816Y004371D01*
X006033Y004371D02*
X006033Y004477D01*
X006460Y004477D01*
X006785Y004477D02*
X007105Y004157D01*
X006678Y004157D01*
X006460Y003944D02*
X006460Y003837D01*
X006460Y003944D02*
X006033Y004371D01*
X005602Y004157D02*
X005496Y004157D01*
X005389Y004050D01*
X005389Y003944D01*
X005496Y003837D01*
X005709Y003837D01*
X005816Y003944D01*
X005496Y004157D02*
X005389Y004264D01*
X005389Y004371D01*
X006247Y004887D02*
X006354Y004994D01*
X006354Y005421D01*
X006460Y005314D02*
X006247Y005314D01*
X006678Y005207D02*
X006678Y004887D01*
X006998Y004887D01*
X007105Y004994D01*
X006998Y005100D01*
X006678Y005100D01*
X006678Y005207D02*
X006785Y005314D01*
X006998Y005314D01*
X007323Y005527D02*
X007323Y004887D01*
X007536Y005100D01*
X007750Y004887D01*
X007750Y005527D01*
X007750Y005937D02*
X007323Y005937D01*
X007105Y005937D02*
X006892Y005937D01*
X006998Y005937D02*
X006998Y006577D01*
X006892Y006577D02*
X007105Y006577D01*
X007323Y006577D02*
X007750Y006577D01*
X007750Y005937D01*
X007750Y006257D02*
X007536Y006257D01*
X006675Y006150D02*
X006355Y006150D01*
X006248Y006257D01*
X006248Y006471D01*
X006355Y006577D01*
X006675Y006577D01*
X006675Y005937D01*
X006462Y006150D02*
X006248Y005937D01*
X006785Y004477D02*
X006785Y003837D01*
X007967Y003944D02*
X008074Y003837D01*
X008287Y003837D01*
X008394Y003944D01*
X008612Y003944D02*
X008718Y003837D01*
X008932Y003837D01*
X009039Y003944D01*
X009039Y004371D01*
X008932Y004477D01*
X008718Y004477D01*
X008612Y004371D01*
X008394Y004371D02*
X008394Y004264D01*
X008287Y004157D01*
X008074Y004157D01*
X007967Y004050D01*
X007967Y003944D01*
X007967Y004371D02*
X008074Y004477D01*
X008287Y004477D01*
X008394Y004371D01*
X008718Y004887D02*
X008932Y004887D01*
X009039Y004994D01*
X009039Y005207D01*
X008932Y005314D01*
X008718Y005314D01*
X008612Y005207D01*
X008612Y005100D01*
X009039Y005100D01*
X009256Y005207D02*
X009256Y004887D01*
X009256Y005207D02*
X009363Y005314D01*
X009576Y005314D01*
X009683Y005207D01*
X009683Y005527D02*
X009683Y004887D01*
X010114Y004887D02*
X010114Y005527D01*
X009901Y005527D02*
X010328Y005527D01*
X010114Y005937D02*
X010114Y006577D01*
X009901Y006577D02*
X010328Y006577D01*
X009683Y006577D02*
X009683Y005937D01*
X009683Y006257D02*
X009576Y006364D01*
X009363Y006364D01*
X009256Y006257D01*
X009256Y005937D01*
X009039Y006044D02*
X009039Y006257D01*
X008932Y006364D01*
X008718Y006364D01*
X008612Y006257D01*
X008612Y006150D01*
X009039Y006150D01*
X009039Y006044D02*
X008932Y005937D01*
X008718Y005937D01*
X009256Y004477D02*
X009683Y004477D01*
X009683Y003837D01*
X009256Y003837D01*
X009470Y004157D02*
X009683Y004157D01*
X009901Y003837D02*
X010328Y003837D01*
X010328Y004477D01*
X009901Y004477D01*
X010114Y004157D02*
X010328Y004157D01*
D11*
X003525Y001460D02*
X002383Y001460D01*
X002384Y003035D01*
X003525Y003035D01*
X003525Y001460D01*
X004105Y006878D02*
X002689Y006878D01*
X002689Y006917D01*
X002689Y006918D02*
X002689Y007508D01*
X004105Y007508D01*
X004105Y006878D01*
X003476Y007035D02*
X003318Y007193D01*
X003476Y007350D01*
X003476Y007035D01*
X003318Y007035D02*
X003318Y007193D01*
X003318Y007350D01*
X003118Y010827D02*
X003039Y010827D01*
X003039Y010905D01*
X003134Y010922D02*
X003134Y011322D01*
X003534Y011322D01*
X003534Y010922D01*
X003134Y010922D01*
X003295Y011082D02*
X003295Y011161D01*
X003374Y011082D01*
X003295Y011082D01*
X007944Y010949D02*
X007944Y011421D01*
X007944Y010949D02*
X008771Y010949D01*
X010976Y010949D02*
X011724Y010949D01*
X011724Y011421D01*
X013895Y002919D02*
X015180Y002919D01*
X015398Y002869D02*
X016054Y002552D01*
X016081Y002537D01*
X016106Y002518D01*
X016128Y002497D01*
X016148Y002473D01*
X016165Y002446D01*
X016178Y002418D01*
X016187Y002389D01*
X016193Y002358D01*
X016195Y002327D01*
X016195Y001901D01*
X016193Y001870D01*
X016187Y001839D01*
X016178Y001810D01*
X016165Y001782D01*
X016148Y001755D01*
X016128Y001731D01*
X016106Y001710D01*
X016081Y001691D01*
X016054Y001676D01*
X015398Y001359D01*
X015180Y001309D02*
X013895Y001309D01*
X013851Y001311D01*
X013808Y001317D01*
X013766Y001326D01*
X013724Y001339D01*
X013684Y001356D01*
X013645Y001376D01*
X013608Y001399D01*
X013574Y001426D01*
X013541Y001455D01*
X013512Y001488D01*
X013485Y001522D01*
X013462Y001559D01*
X013442Y001598D01*
X013425Y001638D01*
X013412Y001680D01*
X013403Y001722D01*
X013397Y001765D01*
X013395Y001809D01*
X013395Y002419D01*
X013397Y002463D01*
X013403Y002506D01*
X013412Y002548D01*
X013425Y002590D01*
X013442Y002630D01*
X013462Y002669D01*
X013485Y002706D01*
X013512Y002740D01*
X013541Y002773D01*
X013574Y002802D01*
X013608Y002829D01*
X013645Y002852D01*
X013684Y002872D01*
X013724Y002889D01*
X013766Y002902D01*
X013808Y002911D01*
X013851Y002917D01*
X013895Y002919D01*
X015180Y002919D02*
X015217Y002918D01*
X015255Y002913D01*
X015292Y002906D01*
X015328Y002897D01*
X015363Y002884D01*
X015398Y002869D01*
X015045Y001864D02*
X015047Y001895D01*
X015053Y001926D01*
X015063Y001956D01*
X015076Y001984D01*
X015093Y002011D01*
X015113Y002035D01*
X015136Y002057D01*
X015161Y002075D01*
X015189Y002090D01*
X015218Y002102D01*
X015248Y002110D01*
X015279Y002114D01*
X015311Y002114D01*
X015342Y002110D01*
X015372Y002102D01*
X015401Y002090D01*
X015429Y002075D01*
X015454Y002057D01*
X015477Y002035D01*
X015497Y002011D01*
X015514Y001984D01*
X015527Y001956D01*
X015537Y001926D01*
X015543Y001895D01*
X015545Y001864D01*
X015543Y001833D01*
X015537Y001802D01*
X015527Y001772D01*
X015514Y001744D01*
X015497Y001717D01*
X015477Y001693D01*
X015454Y001671D01*
X015429Y001653D01*
X015401Y001638D01*
X015372Y001626D01*
X015342Y001618D01*
X015311Y001614D01*
X015279Y001614D01*
X015248Y001618D01*
X015218Y001626D01*
X015189Y001638D01*
X015161Y001653D01*
X015136Y001671D01*
X015113Y001693D01*
X015093Y001717D01*
X015076Y001744D01*
X015063Y001772D01*
X015053Y001802D01*
X015047Y001833D01*
X015045Y001864D01*
X015180Y001309D02*
X015217Y001310D01*
X015255Y001315D01*
X015292Y001322D01*
X015328Y001331D01*
X015363Y001344D01*
X015398Y001359D01*
D12*
X009753Y008374D02*
X008253Y008374D01*
X008253Y009074D01*
X009753Y009074D01*
X009753Y008374D01*
X010446Y009370D02*
X008946Y009370D01*
X008946Y010070D01*
X010446Y010070D01*
X010446Y009370D01*
D13*
X004377Y011618D03*
X003649Y010275D03*
X003244Y010267D03*
X016157Y002850D03*
M02*
