G75*
%MOIN*%
%OFA0B0*%
%FSLAX24Y24*%
%IPPOS*%
%LPD*%
%AMOC8*
5,1,8,0,0,1.08239X$1,22.5*
%
%ADD10C,0.0000*%
D10*
X001921Y001149D02*
X001905Y012996D01*
X017649Y012984D01*
X017645Y001149D01*
X001921Y001149D01*
X004558Y009480D02*
X004560Y009528D01*
X004566Y009576D01*
X004576Y009623D01*
X004589Y009669D01*
X004607Y009714D01*
X004627Y009758D01*
X004652Y009800D01*
X004680Y009839D01*
X004710Y009876D01*
X004744Y009910D01*
X004781Y009942D01*
X004819Y009971D01*
X004860Y009996D01*
X004903Y010018D01*
X004948Y010036D01*
X004994Y010050D01*
X005041Y010061D01*
X005089Y010068D01*
X005137Y010071D01*
X005185Y010070D01*
X005233Y010065D01*
X005281Y010056D01*
X005327Y010044D01*
X005372Y010027D01*
X005416Y010007D01*
X005458Y009984D01*
X005498Y009957D01*
X005536Y009927D01*
X005571Y009894D01*
X005603Y009858D01*
X005633Y009820D01*
X005659Y009779D01*
X005681Y009736D01*
X005701Y009692D01*
X005716Y009647D01*
X005728Y009600D01*
X005736Y009552D01*
X005740Y009504D01*
X005740Y009456D01*
X005736Y009408D01*
X005728Y009360D01*
X005716Y009313D01*
X005701Y009268D01*
X005681Y009224D01*
X005659Y009181D01*
X005633Y009140D01*
X005603Y009102D01*
X005571Y009066D01*
X005536Y009033D01*
X005498Y009003D01*
X005458Y008976D01*
X005416Y008953D01*
X005372Y008933D01*
X005327Y008916D01*
X005281Y008904D01*
X005233Y008895D01*
X005185Y008890D01*
X005137Y008889D01*
X005089Y008892D01*
X005041Y008899D01*
X004994Y008910D01*
X004948Y008924D01*
X004903Y008942D01*
X004860Y008964D01*
X004819Y008989D01*
X004781Y009018D01*
X004744Y009050D01*
X004710Y009084D01*
X004680Y009121D01*
X004652Y009160D01*
X004627Y009202D01*
X004607Y009246D01*
X004589Y009291D01*
X004576Y009337D01*
X004566Y009384D01*
X004560Y009432D01*
X004558Y009480D01*
X013595Y002514D02*
X013597Y002542D01*
X013603Y002569D01*
X013612Y002595D01*
X013625Y002620D01*
X013642Y002643D01*
X013661Y002663D01*
X013683Y002680D01*
X013707Y002694D01*
X013733Y002704D01*
X013760Y002711D01*
X013788Y002714D01*
X013816Y002713D01*
X013843Y002708D01*
X013870Y002699D01*
X013895Y002687D01*
X013918Y002672D01*
X013939Y002653D01*
X013957Y002632D01*
X013972Y002608D01*
X013983Y002582D01*
X013991Y002556D01*
X013995Y002528D01*
X013995Y002500D01*
X013991Y002472D01*
X013983Y002446D01*
X013972Y002420D01*
X013957Y002396D01*
X013939Y002375D01*
X013918Y002356D01*
X013895Y002341D01*
X013870Y002329D01*
X013843Y002320D01*
X013816Y002315D01*
X013788Y002314D01*
X013760Y002317D01*
X013733Y002324D01*
X013707Y002334D01*
X013683Y002348D01*
X013661Y002365D01*
X013642Y002385D01*
X013625Y002408D01*
X013612Y002433D01*
X013603Y002459D01*
X013597Y002486D01*
X013595Y002514D01*
X013595Y001714D02*
X013597Y001742D01*
X013603Y001769D01*
X013612Y001795D01*
X013625Y001820D01*
X013642Y001843D01*
X013661Y001863D01*
X013683Y001880D01*
X013707Y001894D01*
X013733Y001904D01*
X013760Y001911D01*
X013788Y001914D01*
X013816Y001913D01*
X013843Y001908D01*
X013870Y001899D01*
X013895Y001887D01*
X013918Y001872D01*
X013939Y001853D01*
X013957Y001832D01*
X013972Y001808D01*
X013983Y001782D01*
X013991Y001756D01*
X013995Y001728D01*
X013995Y001700D01*
X013991Y001672D01*
X013983Y001646D01*
X013972Y001620D01*
X013957Y001596D01*
X013939Y001575D01*
X013918Y001556D01*
X013895Y001541D01*
X013870Y001529D01*
X013843Y001520D01*
X013816Y001515D01*
X013788Y001514D01*
X013760Y001517D01*
X013733Y001524D01*
X013707Y001534D01*
X013683Y001548D01*
X013661Y001565D01*
X013642Y001585D01*
X013625Y001608D01*
X013612Y001633D01*
X013603Y001659D01*
X013597Y001686D01*
X013595Y001714D01*
X015595Y002114D02*
X015597Y002142D01*
X015603Y002169D01*
X015612Y002195D01*
X015625Y002220D01*
X015642Y002243D01*
X015661Y002263D01*
X015683Y002280D01*
X015707Y002294D01*
X015733Y002304D01*
X015760Y002311D01*
X015788Y002314D01*
X015816Y002313D01*
X015843Y002308D01*
X015870Y002299D01*
X015895Y002287D01*
X015918Y002272D01*
X015939Y002253D01*
X015957Y002232D01*
X015972Y002208D01*
X015983Y002182D01*
X015991Y002156D01*
X015995Y002128D01*
X015995Y002100D01*
X015991Y002072D01*
X015983Y002046D01*
X015972Y002020D01*
X015957Y001996D01*
X015939Y001975D01*
X015918Y001956D01*
X015895Y001941D01*
X015870Y001929D01*
X015843Y001920D01*
X015816Y001915D01*
X015788Y001914D01*
X015760Y001917D01*
X015733Y001924D01*
X015707Y001934D01*
X015683Y001948D01*
X015661Y001965D01*
X015642Y001985D01*
X015625Y002008D01*
X015612Y002033D01*
X015603Y002059D01*
X015597Y002086D01*
X015595Y002114D01*
M02*
